<?xml version="1.0" encoding="UTF-8"?>
<svg version="1.1" xmlns="http://www.w3.org/2000/svg" width="2130" height="1302">
<path d="M0 0 C1.81899811 0.00273422 1.81899811 0.00273422 3.67474365 0.00552368 C21.64885109 0.05099138 39.21411655 0.54358588 57 3.3125 C58.75376953 3.56990967 58.75376953 3.56990967 60.54296875 3.83251953 C119.202999 12.55204316 176.24909896 34.40174928 225 68.3125 C226.08023438 69.05628906 227.16046875 69.80007812 228.2734375 70.56640625 C237.55231231 77.0260825 246.34372557 84.04507552 255 91.3125 C255.49076019 91.72067963 255.98152039 92.12885925 256.4871521 92.54940796 C265.23692945 99.84036933 273.50053003 107.49507481 281.5246582 115.57641602 C283.32215805 117.38471608 285.13022316 119.18195977 286.93945312 120.97851562 C293.75166059 127.78258918 300.04832951 134.73405507 306 142.3125 C307.00058974 143.53267513 308.00409307 144.75047244 309.01171875 145.96484375 C339.26103867 182.91839618 339.26103867 182.91839618 346 202.3125 C345.34 202.3125 344.68 202.3125 344 202.3125 C342.7469687 200.75898157 341.57357053 199.14099077 340.4375 197.5 C336.20532505 191.5430428 331.69273594 185.91085165 327 180.3125 C326.13145384 179.25525481 325.2629663 178.19796146 324.39453125 177.140625 C312.88921719 163.28162928 300.2061132 150.39806913 286 139.3125 C284.14309253 137.73238192 282.28908524 136.14885134 280.4375 134.5625 C265.02606415 121.77219071 248.34413505 111.28107574 231 101.3125 C230.22301758 100.86390625 229.44603516 100.4153125 228.64550781 99.953125 C194.41464497 80.40170032 155.33508074 68.75604322 116.6875 62.0625 C115.81859131 61.91111572 114.94968262 61.75973145 114.05444336 61.60375977 C96.42053661 58.74896146 78.77453132 57.93359055 60.9375 58 C59.40119934 58.00273422 59.40119934 58.00273422 57.8338623 58.00552368 C41.38474178 58.05461074 25.27274761 58.71949321 9 61.3125 C7.31753174 61.57788574 7.31753174 61.57788574 5.60107422 61.84863281 C-50.44117105 70.95441645 -103.38534157 92.34589501 -149 126.3125 C-149.53254395 126.70614746 -150.06508789 127.09979492 -150.61376953 127.50537109 C-164.30320029 137.66338572 -176.79553397 148.92464422 -188.875 160.9375 C-189.36127869 161.41851166 -189.84755737 161.89952332 -190.34857178 162.39511108 C-197.02928142 169.01976455 -203.15243068 175.94041668 -209 183.3125 C-210.04823572 184.59063358 -211.09871019 185.86693748 -212.15234375 187.140625 C-227.18146553 205.51976955 -239.89508764 225.93511472 -250.07324219 247.38232422 C-250.9946313 249.30131851 -251.95019103 251.19969859 -252.9140625 253.09765625 C-288.83517394 324.92190059 -291.50044234 412.65690406 -267 488.3125 C-254.48377667 525.06498675 -236.20501634 558.9951058 -212 589.3125 C-211.27554688 590.2303125 -210.55109375 591.148125 -209.8046875 592.09375 C-197.0562739 607.99499707 -182.65959872 623.66977929 -166.60546875 636.26171875 C-163.85076711 638.42996217 -161.21592624 640.70924569 -158.5625 643 C-143.53601746 655.49306013 -126.96817928 665.69991767 -110 675.3125 C-109.33226562 675.69599609 -108.66453125 676.07949219 -107.9765625 676.47460938 C-57.66772306 705.24565167 1.85878086 718.52337411 59.4375 718.5625 C60.33639954 718.56317474 61.23529907 718.56384949 62.16143799 718.56454468 C144.03235586 718.46764637 226.23971131 689.62651274 288 635.3125 C288.73347656 634.67828125 289.46695313 634.0440625 290.22265625 633.390625 C292.16041244 631.71097948 294.08208391 630.01474681 296 628.3125 C296.76570313 627.63960937 297.53140625 626.96671875 298.3203125 626.2734375 C312.06246341 614.08212493 323.76111627 600.78281685 335 586.3125 C335.66 586.6425 336.32 586.9725 337 587.3125 C330.28052666 598.49180078 323.01589089 609.02461683 315 619.3125 C314.28972656 620.22644531 313.57945312 621.14039063 312.84765625 622.08203125 C310.92520545 624.51556304 308.97268906 626.91952593 307 629.3125 C306.19433594 630.2921875 305.38867188 631.271875 304.55859375 632.28125 C291.85580242 647.58153747 278.16620383 662.42515581 263 675.3125 C261.98471636 676.20202965 260.97048392 677.09275986 259.95703125 677.984375 C189.08977895 740.02908476 95.52550319 773.63632184 1.625 773.5 C0.84519775 773.49939575 0.06539551 773.4987915 -0.73803711 773.49816895 C-59.20439054 773.37627733 -117.23130685 760.62237092 -170 735.3125 C-170.87962402 734.89387695 -171.75924805 734.47525391 -172.66552734 734.04394531 C-205.21820393 718.46347317 -235.01664204 698.25349471 -262 674.3125 C-262.95777344 673.466875 -263.91554688 672.62125 -264.90234375 671.75 C-271.22508058 666.06040417 -277.28608191 660.12570602 -283.3125 654.125 C-284.06563477 653.37653809 -284.81876953 652.62807617 -285.59472656 651.85693359 C-354.61780708 582.63524749 -391.80443705 483.83798553 -392.25 386.875 C-391.8127802 304.4740403 -366.0383831 223.13469461 -316 157.3125 C-315.5246582 156.68553223 -315.04931641 156.05856445 -314.55957031 155.41259766 C-298.84153367 134.79436134 -281.34512767 115.58106268 -262 98.3125 C-261.21109375 97.60649658 -261.21109375 97.60649658 -260.40625 96.88623047 C-245.07879985 83.28409597 -228.26130614 71.31935284 -211 60.3125 C-210.07622559 59.72227051 -210.07622559 59.72227051 -209.13378906 59.12011719 C-197.50945126 51.7633445 -185.26582971 45.51822181 -173 39.3125 C-172.19046875 38.89967773 -171.3809375 38.48685547 -170.546875 38.06152344 C-136.30662849 20.72303127 -98.43240707 10.00884173 -60.625 4.0625 C-59.66529297 3.91135742 -58.70558594 3.76021484 -57.71679688 3.60449219 C-54.48219193 3.12653022 -51.24580498 2.70785599 -48 2.3125 C-47.28549683 2.22529694 -46.57099365 2.13809387 -45.83483887 2.04824829 C-30.55617385 0.24219425 -15.37300945 -0.04800859 0 0 Z " fill="#DB9727" transform="translate(1066,-0.3125)"/>
<path d="M0 0 C0.83724609 0.41459473 1.67449219 0.82918945 2.53710938 1.25634766 C28.93495775 14.37726402 53.80317063 31.34295255 75.328125 51.51171875 C77.5542356 53.58486561 79.81247618 55.58760465 82.125 57.5625 C105.95497353 78.27129197 125.56637672 105.14211182 140.72070312 132.67626953 C141.56081426 134.20225766 142.40825985 135.7242353 143.26367188 137.24169922 C167.32147735 179.96213148 179.6005158 229.13467676 181 278 C181.061875 279.92972656 181.061875 279.92972656 181.125 281.8984375 C182.33585279 358.93894599 154.17859052 435.42408566 103 493 C102.34708984 493.73903564 101.69417969 494.47807129 101.02148438 495.23950195 C89.32426858 508.37580335 77.02318529 521.3301851 63 532 C61.64395691 533.08098364 60.28997646 534.16455728 58.9375 535.25 C49.01348001 543.16845761 38.86224839 550.42640631 28 557 C27.21318848 557.47646973 26.42637695 557.95293945 25.61572266 558.44384766 C-17.81746521 584.49002927 -65.66315028 600.48546263 -116 606 C-116.82435547 606.09571289 -117.64871094 606.19142578 -118.49804688 606.29003906 C-129.29385968 607.37741515 -140.16128029 607.24010286 -151 607.25 C-152.06337585 607.25200409 -153.12675171 607.25400818 -154.22235107 607.256073 C-173.05162473 607.26476316 -191.4208763 606.26561389 -210 603 C-210 602.34 -210 601.68 -210 601 C-209.39865234 600.88519287 -208.79730469 600.77038574 -208.17773438 600.65209961 C-156.62677617 590.68187933 -104.67638438 570.79983101 -63.61328125 537.31005859 C-61.81798758 535.85219754 -60.00351163 534.42024072 -58.1875 532.98828125 C-48.68323292 525.4433483 -39.72051542 517.43531294 -31 509 C-30.25314941 508.27804443 -30.25314941 508.27804443 -29.49121094 507.54150391 C-24.04981274 502.25325138 -18.86336996 496.82287428 -14 491 C-13.55317871 490.47229004 -13.10635742 489.94458008 -12.64599609 489.40087891 C41.0742539 425.77427417 67.72363608 343.42525822 61.49609375 260.40234375 C54.06507819 177.82419364 14.11375543 101.53995578 -48.27734375 47.06640625 C-50.80929867 44.98061079 -53.38315873 42.97779812 -56 41 C-56.92683594 40.25621094 -57.85367187 39.51242188 -58.80859375 38.74609375 C-103.19569724 3.51913136 -154.8967015 -17.53794437 -210 -29 C-206.86220385 -31.0918641 -205.45330647 -31.38883831 -201.80078125 -31.81640625 C-200.24750122 -32.0023938 -200.24750122 -32.0023938 -198.6628418 -32.19213867 C-197.557229 -32.31435791 -196.45161621 -32.43657715 -195.3125 -32.5625 C-193.60284058 -32.75646362 -193.60284058 -32.75646362 -191.85864258 -32.9543457 C-126.48244327 -40.19674414 -58.92091474 -29.71576653 0 0 Z " fill="#2E3C8F" transform="translate(1276,101)"/>
<path d="M0 0 C24.42 0 48.84 0 74 0 C74.0093457 8.77335938 74.01869141 17.54671875 74.02832031 26.5859375 C74.06103024 54.65950533 74.11331754 82.73300618 74.17792095 110.80651802 C74.18793837 115.16739839 74.19778251 119.52827915 74.20751953 123.88916016 C74.2094609 124.75733057 74.21140228 125.62550099 74.21340248 126.5199796 C74.24442094 140.57603303 74.2614027 154.63207015 74.27319422 168.68815136 C74.28560658 183.11171485 74.31310989 197.53519268 74.35461307 211.95870209 C74.37974606 220.85831727 74.39311743 229.75779038 74.39142957 238.65744156 C74.39139981 244.76082747 74.40603266 250.8640687 74.43216428 256.96739823 C74.44680752 260.48839308 74.4550157 264.00909122 74.44580269 267.53011131 C74.43597582 271.35042535 74.45704053 275.17021924 74.48101807 278.99047852 C74.46937744 280.65392335 74.46937744 280.65392335 74.45750165 282.35097313 C74.54637621 290.34435338 76.15877074 295.62124089 81.3125 301.75 C88.72126027 307.95268301 93.94737546 308.58703498 103.45288086 308.54589844 C104.69260651 308.55623611 105.93233215 308.56657379 107.20962524 308.57722473 C110.59159938 308.60158483 113.97274876 308.6084918 117.3547523 308.60750484 C120.89556545 308.61064304 124.43621571 308.63627998 127.97694397 308.65948486 C134.67386816 308.69997934 141.37069514 308.72037007 148.06772286 308.73345876 C155.69539656 308.7493511 163.32290535 308.78777604 170.9504832 308.82805204 C186.63360639 308.91036121 202.31669673 308.9645093 218 309 C219.90501921 314.98116922 221.80954757 320.96249446 223.71365356 326.94395447 C224.35923538 328.97172599 225.00494304 330.99945745 225.65078735 333.02714539 C240 378.07905374 240 378.07905374 240 382 C220.2318348 382.11724724 200.46374099 382.20518959 180.69529915 382.25906086 C171.51468344 382.28474865 162.33428486 382.31971686 153.15380859 382.37719727 C145.14409344 382.42732308 137.13453567 382.45935934 129.124668 382.47044247 C124.8906846 382.47691234 120.6571511 382.49191666 116.42331314 382.52865028 C82.63004494 382.81035819 82.63004494 382.81035819 68 377 C66.68019339 376.49717777 65.36021583 375.994804 64.04006958 375.49287415 C51.86580557 370.70422489 41.81446448 363.55106403 32 355 C31.37480469 354.45988281 30.74960937 353.91976563 30.10546875 353.36328125 C13.19103426 337.63721452 1.30391426 311.16176257 -0.18289971 288.17191482 C-0.25028308 285.02959292 -0.25710729 281.89297557 -0.24050903 278.74996948 C-0.24221788 277.5531115 -0.24392673 276.35625351 -0.24568737 275.1231271 C-0.24839694 271.82780299 -0.2422042 268.532639 -0.23213124 265.23733377 C-0.22344993 261.673741 -0.2264202 258.11015495 -0.22793579 254.54655457 C-0.2289817 248.38124727 -0.22273598 242.21598249 -0.21146011 236.05068588 C-0.19516801 227.13683832 -0.18999332 218.22301119 -0.18748413 209.30915035 C-0.18311284 194.845086 -0.16981912 180.38104427 -0.15087891 165.91699219 C-0.13250544 151.8710949 -0.11835612 137.82520377 -0.10986328 123.77929688 C-0.10933783 122.9127084 -0.10881239 122.04611992 -0.10827102 121.15327118 C-0.10566084 116.80561283 -0.10313345 112.45795444 -0.10064721 108.11029601 C-0.07993234 72.07351057 -0.0430721 36.03676701 0 0 Z " fill="#DB9727" transform="translate(947,193)"/>
<path d="M0 0 C10.56 0 21.12 0 32 0 C32.14661201 14.63554368 31.56530219 29.19738351 30.90625 43.81640625 C30.7938243 46.37042336 30.6817287 48.92445502 30.56994629 51.47850037 C30.30706682 57.46689913 30.04090923 63.45514313 29.77308702 69.44332212 C29.43774574 76.94578773 29.10755441 84.448479 28.77734375 91.95117188 C28.18976499 105.30100087 27.59453904 118.65047514 27 132 C47.79 131.67 68.58 131.34 90 131 C90 137.27 90 143.54 90 150 C97.67664993 134.38380117 105.0055677 118.65620132 112.02636719 102.73498535 C116.41919138 92.7744755 120.87957385 82.85758157 125.5 73 C136.79155319 48.8757707 147.42850729 24.4465769 158 0 C170.54 0 183.08 0 196 0 C198.44630508 6.11576269 200.71679238 11.93061704 202.53125 18.203125 C203.00639053 19.80802642 203.48182983 21.4128394 203.95751953 23.01757812 C204.33194183 24.28903687 204.33194183 24.28903687 204.71392822 25.58618164 C210.53885823 45.32554378 216.77707105 64.9243777 223.125 84.5 C223.34108036 85.16644531 223.55716072 85.83289062 223.77978897 86.51953125 C224.43037975 88.52605552 225.08103149 90.53256001 225.73168945 92.5390625 C226.37056377 94.5093491 227.00940622 96.479646 227.64817619 98.44996643 C228.06621673 99.73940663 228.48432363 101.02882532 228.90249825 102.31822205 C233.02430212 115.03069079 237.05491742 127.77045689 241.01806641 140.53320312 C241.40784668 141.78552734 241.79762695 143.03785156 242.19921875 144.328125 C242.69168091 145.91995605 242.69168091 145.91995605 243.1940918 147.54394531 C243.92352511 149.96876843 243.92352511 149.96876843 245 152 C252.73640134 142.06218365 259.7616042 131.65991879 266.8125 121.23046875 C269.16002817 117.76367269 271.5167244 114.30323741 273.875 110.84375 C275.13159603 108.99852751 276.38792404 107.15312294 277.644104 105.30761719 C278.44808725 104.12693747 279.25255032 102.9465843 280.05755615 101.76660156 C281.95426764 98.98533181 283.83953284 96.19815297 285.70800781 93.39770508 C287.31232425 90.99486426 288.97099105 88.64022898 290.65917969 86.2956543 C291.51550409 85.06596145 292.37131301 83.83590944 293.2265625 82.60546875 C293.64154999 82.05012451 294.05653748 81.49478027 294.48410034 80.92260742 C295.80254234 79.09992769 295.80254234 79.09992769 297 76 C296.03241829 71.77914782 294.45590472 68.34501203 292.04296875 64.7734375 C289.02047856 60.11178485 286.36852375 55.28937807 283.71044922 50.41259766 C281.79654967 46.90829534 279.85666039 43.4193501 277.90234375 39.9375 C277.57747986 39.35860016 277.25261597 38.77970032 276.91790771 38.18325806 C274.72674964 34.28352569 272.52385373 30.39052958 270.31640625 26.5 C269.73592529 25.47656494 269.15544434 24.45312988 268.55737305 23.39868164 C267.4744474 21.4926005 266.38888088 19.58801607 265.30004883 17.68530273 C264.80657959 16.81848877 264.31311035 15.9516748 263.8046875 15.05859375 C263.38171387 14.31923584 262.95874023 13.57987793 262.52294922 12.81811523 C260.24367252 8.60046681 258.14399909 4.28799818 256 0 C267.88 0 279.76 0 292 0 C297.62122789 11.24245578 297.62122789 11.24245578 299.6484375 15.69921875 C300.09340576 16.67439453 300.53837402 17.64957031 300.99682617 18.65429688 C301.45162354 19.65525391 301.9064209 20.65621094 302.375 21.6875 C303.33683544 23.79575734 304.29907513 25.9038303 305.26171875 28.01171875 C305.72626465 29.02927246 306.19081055 30.04682617 306.66943359 31.09521484 C309.41083065 37.08001156 312.20214315 43.04142431 315 49 C315.71542969 47.98164062 316.43085938 46.96328125 317.16796875 45.9140625 C318.17422276 44.48419452 319.18075629 43.05452323 320.1875 41.625 C320.72415283 40.86276123 321.26080566 40.10052246 321.8137207 39.31518555 C324.64106034 35.30893492 327.48610031 31.31760478 330.375 27.35546875 C330.92905518 26.59476074 331.48311035 25.83405273 332.05395508 25.05029297 C333.09727334 23.62105143 334.14368132 22.19405682 335.1940918 20.77001953 C335.69078369 20.0892334 336.18747559 19.40844727 336.69921875 18.70703125 C337.49187134 17.64693848 337.49187134 17.64693848 338.30053711 16.56542969 C339.66847477 14.50045498 340.71662876 12.58301181 341.77954102 10.36425781 C346.52742606 0.96427174 346.52742606 0.96427174 350.85733032 -0.72433472 C356.08182062 -1.73575992 361.2938791 -1.27990075 366.5625 -0.875 C368.15923096 -0.804668 369.75626083 -0.74080787 371.35351562 -0.68359375 C375.24313561 -0.53026939 379.11824209 -0.28956469 383 0 C381.63351078 3.76523065 379.91130119 6.84865588 377.6484375 10.1484375 C376.97006836 11.14206299 376.29169922 12.13568848 375.59277344 13.15942383 C374.8609082 14.22056396 374.12904297 15.2817041 373.375 16.375 C372.60933956 17.49283553 371.8440456 18.61092215 371.07910156 19.72924805 C366.66991237 26.16558129 362.21449242 32.56910882 357.74243164 38.96191406 C354.47929531 43.63050612 351.23310079 48.31056234 348 53 C347.34821777 53.94439941 346.69643555 54.88879883 346.02490234 55.86181641 C344.14447068 58.60456367 342.28739828 61.36159367 340.4375 64.125 C339.87063477 64.94846924 339.30376953 65.77193848 338.71972656 66.62036133 C338.21280273 67.38759521 337.70587891 68.1548291 337.18359375 68.9453125 C336.73556396 69.61062988 336.28753418 70.27594727 335.82592773 70.96142578 C334.69731506 73.74709406 335.1047043 75.14786275 336 78 C336.91030864 79.96564364 337.89233713 81.89878391 338.921875 83.8046875 C339.52854004 84.93366455 340.13520508 86.0626416 340.76025391 87.22583008 C341.4231768 88.44239765 342.08643371 89.65878325 342.75 90.875 C343.43307331 92.13745525 344.11584967 93.4000712 344.79833984 94.6628418 C351.04672495 106.19457325 357.4956309 117.61106451 364 129 C366.3999707 133.20599276 368.79490055 137.41481074 371.1875 141.625 C371.74066895 142.59155518 372.29383789 143.55811035 372.86376953 144.55395508 C373.37665527 145.45654053 373.88954102 146.35912598 374.41796875 147.2890625 C374.86938232 148.08006348 375.3207959 148.87106445 375.78588867 149.68603516 C377.02317052 152.0441605 378.01098297 154.52745742 379 157 C366.79 157 354.58 157 342 157 C340.246875 153.596875 338.49375 150.19375 336.6875 146.6875 C331.4897867 136.66783758 325.98145366 126.87512575 320.25048828 117.15332031 C318.10996727 113.46737823 316.0535877 109.73489078 314 106 C310.78562926 108.91801032 308.4104085 112.10888078 306.00512695 115.68823242 C304.91778374 117.29172921 303.79495993 118.87151226 302.64526367 120.4309082 C299.36232089 124.98779075 296.7934496 129.21368162 294.9336853 134.54055786 C291.9833718 142.81729463 288.33344316 151.09177809 280.63720703 155.89666748 C261.37154691 163.95687249 232.30547194 158.60901994 212 157 C211.55719683 155.41272095 211.11439612 153.82544121 210.67160702 152.23815823 C210.29623713 150.89264437 209.92082277 149.54714291 209.54536533 148.20165348 C208.77996489 145.45859608 208.01476118 142.71548817 207.25216675 139.97164917 C203.71421823 127.24307214 199.84870204 114.64573528 196 102 C179.17 102 162.34 102 145 102 C142.1125 109.05375 139.225 116.1075 136.25 123.375 C135.34668945 125.58106934 134.44337891 127.78713867 133.51269531 130.06005859 C132.78447389 131.83950541 132.05628189 133.61896427 131.328125 135.3984375 C130.95993652 136.29731689 130.59174805 137.19619629 130.21240234 138.12231445 C129.84743652 139.01442627 129.4824707 139.90653809 129.10644531 140.82568359 C128.58467712 142.10097931 128.58467712 142.10097931 128.05236816 143.40203857 C126.61398465 146.9529488 125.2142573 150.51891381 123.82049561 154.08755493 C123 156 123 156 122 157 C120.32975331 157.09614133 118.65541724 157.12187722 116.98240662 157.12025452 C115.89560608 157.12162918 114.80880554 157.12300385 113.68907166 157.12442017 C112.48642166 157.12082489 111.28377167 157.11722961 110.04467773 157.11352539 C108.78632111 157.11367142 107.52796448 157.11381744 106.23147583 157.1139679 C102.77088747 157.11425585 99.31033348 157.10835949 95.84975314 157.10139394 C92.23691909 157.09516003 88.62408433 157.09455657 85.01124573 157.09336853 C78.16536492 157.09025532 71.3195 157.08204208 64.4736262 157.07201904 C56.68173411 157.06085757 48.88984127 157.05534737 41.09794319 157.05032361 C25.06528614 157.03985946 9.0326451 157.02226023 -7 157 C-6.94726929 156.15612732 -6.89453857 155.31225464 -6.84020996 154.44281006 C-5.59212996 134.38447816 -4.45233673 114.3249369 -3.5 94.25 C-3.43718842 92.93909393 -3.37437683 91.62818787 -3.30966187 90.27755737 C-1.87302523 60.19573204 -0.89809914 30.10216994 0 0 Z M175 26 C174.47212891 27.25937378 174.47212891 27.25937378 173.93359375 28.54418945 C172.58894722 31.75198768 171.24413483 34.9597163 169.89926147 38.16741943 C169.00339032 40.30441281 168.10776808 42.44151039 167.2121582 44.57861328 C164.60134244 50.80714964 161.98886519 57.03487226 159.35546875 63.25390625 C158.98228516 64.1358667 158.60910156 65.01782715 158.22460938 65.92651367 C157.54644235 67.52758173 156.86681474 69.12803212 156.18554688 70.7277832 C154.66703437 73.76415512 154.66703437 73.76415512 154 77 C165.88 77 177.76 77 190 77 C189.14113762 70.94994836 189.14113762 70.94994836 187.69311523 65.16625977 C187.43292099 64.2858754 187.17272675 63.40549103 186.90464783 62.49842834 C186.62544998 61.57211105 186.34625214 60.64579376 186.05859375 59.69140625 C185.77146011 58.72468491 185.48432648 57.75796356 185.18849182 56.76194763 C184.27612306 53.69406366 183.35692034 50.62827717 182.4375 47.5625 C181.81530189 45.47474442 181.19355224 43.38685513 180.57226562 41.29882812 C179.05336538 36.1976594 177.52885869 31.09819239 176 26 C175.67 26 175.34 26 175 26 Z " fill="#DB9727" transform="translate(13,955)"/>
<path d="M0 0 C10.89 0 21.78 0 33 0 C31.02 43.56 29.04 87.12 27 132 C48.12 131.67 69.24 131.34 91 131 C90.67 137.6 90.34 144.2 90 151 C98.14559202 133.81935476 106.13251368 116.58514406 113.80471802 99.18753052 C119.05325053 87.29246574 124.45518749 75.47645852 129.9375 63.6875 C136.30319801 49.99263109 142.47977176 36.2253039 148.5 22.375 C148.86761444 21.52940521 149.23522888 20.68381042 149.61398315 19.81259155 C150.65064876 17.42529039 151.68542301 15.03718549 152.71875 12.6484375 C153.02309464 11.9450676 153.32743927 11.24169769 153.64100647 10.51701355 C155.14487124 7.02827327 156.58868888 3.5282778 158 0 C170.87 0 183.74 0 197 0 C198.22396484 4.0528125 198.22396484 4.0528125 199.47265625 8.1875 C207.34776664 34.17473767 215.47603317 60.07504706 223.75 85.9375 C223.9898122 86.68735168 224.2296244 87.43720337 224.47670364 88.20977783 C226.12324178 93.35789401 227.77171987 98.50538583 229.421875 103.65234375 C229.64947447 104.36235912 229.87707394 105.0723745 230.11157036 105.80390549 C232.77301454 114.10325232 235.45123823 122.39691941 238.15039062 130.68408203 C238.66680031 132.27176391 239.18317852 133.85945603 239.69952393 135.44715881 C240.68344908 138.47238057 241.67127723 141.49629021 242.66131592 144.51951599 C243.10410207 145.8795833 243.54675676 147.23969342 243.98925781 148.59985352 C244.57311249 150.3860183 244.57311249 150.3860183 245.16876221 152.20826721 C246 155 246 155 246 157 C234.78 157 223.56 157 212 157 C211.030625 153.308125 210.06125 149.61625 209.0625 145.8125 C205.13811916 131.06260369 200.59341261 116.55758457 196 102 C179.17 101.67 162.34 101.34 145 101 C144.01 103.97 143.02 106.94 142 110 C140.9649742 112.63478938 139.91377169 115.2496935 138.8203125 117.859375 C138.52567108 118.57047424 138.23102966 119.28157349 137.92745972 120.01422119 C136.99622903 122.26070791 136.06094675 124.50547452 135.125 126.75 C134.1967017 128.98044721 133.26938519 131.21128973 132.34396362 133.44293213 C131.77243942 134.82074662 131.19931547 136.19789943 130.62405396 137.57415771 C127.95265961 144.00649061 125.50378794 150.49015135 123 157 C80.1 157 37.2 157 -7 157 C-6.401875 147.80125 -5.80375 138.6025 -5.1875 129.125 C-3.35775198 99.70238111 -2.18806993 70.27599861 -1.25 40.8125 C-1.21755062 39.79364967 -1.18510124 38.77479935 -1.15166855 37.72507477 C-0.75257326 25.15049304 -0.37020527 12.57546357 0 0 Z M175 27 C172.00675998 33.95896223 169.01630796 40.9191175 166.02783203 47.88012695 C165.00992649 50.25019752 163.99137256 52.61998972 162.97216797 54.98950195 C161.51100609 58.38680982 160.05214566 61.78509766 158.59375 65.18359375 C158.13440063 66.25024765 157.67505127 67.31690155 157.20178223 68.4158783 C156.78134644 69.39681961 156.36091064 70.37776093 155.92773438 71.38842773 C155.55467163 72.25668686 155.18160889 73.12494598 154.79724121 74.01951599 C153.937762 75.79878881 153.937762 75.79878881 154 77 C166.21 77 178.42 77 191 77 C189.5090126 71.80725076 188.01644615 66.6150056 186.52001953 61.42382812 C186.01293488 59.66301928 185.50672735 57.90195757 185.00146484 56.140625 C182.19409239 46.35651508 179.35083083 36.61479325 176 27 C175.67 27 175.34 27 175 27 Z " fill="#DB9727" transform="translate(1628,955)"/>
<path d="M0 0 C10.56 0 21.12 0 32 0 C32.14661201 14.63554368 31.56530219 29.19738351 30.90625 43.81640625 C30.7938243 46.37042336 30.6817287 48.92445502 30.56994629 51.47850037 C30.30706682 57.46689913 30.04090923 63.45514313 29.77308702 69.44332212 C29.43774574 76.94578773 29.10755441 84.448479 28.77734375 91.95117188 C28.18976499 105.30100087 27.59453904 118.65047514 27 132 C47.79 131.67 68.58 131.34 90 131 C90 137.27 90 143.54 90 150 C97.55765983 134.62585638 104.78492777 119.14785933 111.69146729 103.47116089 C116.957299 91.52316048 122.36942399 79.65178714 127.875 67.8125 C138.30072462 45.37939704 148.25564238 22.73683444 158 0 C170.54 0 183.08 0 196 0 C199.37384773 7.87231137 199.37384773 7.87231137 200.43188477 11.40405273 C200.79593666 12.60698219 200.79593666 12.60698219 201.16734314 13.83421326 C201.42278397 14.69200882 201.67822479 15.54980438 201.94140625 16.43359375 C202.52152726 18.35290082 203.10177432 20.2721698 203.68212891 22.19140625 C203.98741516 23.20605957 204.29270142 24.22071289 204.60723877 25.26611328 C210.57468159 45.07752014 216.76692798 64.81072136 223.125 84.5 C223.50261475 85.66985443 223.88022949 86.83970886 224.26928711 88.04501343 C225.76878955 92.68997536 227.26855979 97.33485049 228.76919556 101.97944641 C232.11194258 112.33131892 235.42130806 122.69362566 238.71014404 133.06274414 C239.2726518 134.83618428 239.8356701 136.60946259 240.39923096 138.38256836 C241.16462333 140.79108337 241.92834043 143.20012203 242.69140625 145.609375 C242.91340195 146.30758362 243.13539764 147.00579224 243.36412048 147.72515869 C244.33706657 150.8051764 245.21600238 153.86400951 246 157 C234.78 157 223.56 157 212 157 C211.18015625 154.10734375 210.3603125 151.2146875 209.515625 148.234375 C208.70866029 145.39434516 207.90076031 142.55458293 207.09277344 139.71484375 C206.53711029 137.76004269 205.98240068 135.8049703 205.42871094 133.84960938 C201.34186056 119.35946144 201.34186056 119.35946144 196.65527344 105.05566406 C196 103 196 103 196 101 C170.755 101.495 170.755 101.495 145 102 C142.1125 109.05375 139.225 116.1075 136.25 123.375 C135.34668945 125.58106934 134.44337891 127.78713867 133.51269531 130.06005859 C132.78447389 131.83950541 132.05628189 133.61896427 131.328125 135.3984375 C130.95993652 136.29731689 130.59174805 137.19619629 130.21240234 138.12231445 C129.84743652 139.01442627 129.4824707 139.90653809 129.10644531 140.82568359 C128.58467712 142.10097931 128.58467712 142.10097931 128.05236816 143.40203857 C126.61398465 146.9529488 125.2142573 150.51891381 123.82049561 154.08755493 C123 156 123 156 122 157 C120.32975331 157.09614133 118.65541724 157.12187722 116.98240662 157.12025452 C115.89560608 157.12162918 114.80880554 157.12300385 113.68907166 157.12442017 C112.48642166 157.12082489 111.28377167 157.11722961 110.04467773 157.11352539 C108.78632111 157.11367142 107.52796448 157.11381744 106.23147583 157.1139679 C102.77088747 157.11425585 99.31033348 157.10835949 95.84975314 157.10139394 C92.23691909 157.09516003 88.62408433 157.09455657 85.01124573 157.09336853 C78.16536492 157.09025532 71.3195 157.08204208 64.4736262 157.07201904 C56.68173411 157.06085757 48.88984127 157.05534737 41.09794319 157.05032361 C25.06528614 157.03985946 9.0326451 157.02226023 -7 157 C-6.94726929 156.15612732 -6.89453857 155.31225464 -6.84020996 154.44281006 C-5.59212996 134.38447816 -4.45233673 114.3249369 -3.5 94.25 C-3.43718842 92.93909393 -3.37437683 91.62818787 -3.30966187 90.27755737 C-1.87302523 60.19573204 -0.89809914 30.10216994 0 0 Z M175 26 C174.47212891 27.25937378 174.47212891 27.25937378 173.93359375 28.54418945 C172.58894722 31.75198768 171.24413483 34.9597163 169.89926147 38.16741943 C169.00339032 40.30441281 168.10776808 42.44151039 167.2121582 44.57861328 C164.60134244 50.80714964 161.98886519 57.03487226 159.35546875 63.25390625 C158.98228516 64.1358667 158.60910156 65.01782715 158.22460938 65.92651367 C157.54644235 67.52758173 156.86681474 69.12803212 156.18554688 70.7277832 C154.66703437 73.76415512 154.66703437 73.76415512 154 77 C165.88 77 177.76 77 190 77 C189.14113762 70.94994836 189.14113762 70.94994836 187.69311523 65.16625977 C187.43292099 64.2858754 187.17272675 63.40549103 186.90464783 62.49842834 C186.62544998 61.57211105 186.34625214 60.64579376 186.05859375 59.69140625 C185.77146011 58.72468491 185.48432648 57.75796356 185.18849182 56.76194763 C184.27612306 53.69406366 183.35692034 50.62827717 182.4375 47.5625 C181.81530189 45.47474442 181.19355224 43.38685513 180.57226562 41.29882812 C179.05336538 36.1976594 177.52885869 31.09819239 176 26 C175.67 26 175.34 26 175 26 Z " fill="#DB9727" transform="translate(922,955)"/>
<path d="M0 0 C13.86 0 27.72 0 42 0 C42.5775 3.0525 43.155 6.105 43.75 9.25 C46.16115892 21.26608341 49.39874743 33.01398427 52.6875 44.8125 C58.79501684 66.72748317 64.02942306 88.80253762 69 111 C70.9302396 106.64054498 72.59400662 102.37092063 73.953125 97.79296875 C74.49960693 95.98505859 74.49960693 95.98505859 75.05712891 94.140625 C75.25026672 93.49931641 75.44340454 92.85800781 75.64239502 92.19726562 C79.8904641 78.14599303 84.64105299 64.30599236 89.625 50.5 C89.94910858 49.6021579 90.27321716 48.7043158 90.60714722 47.77926636 C91.08959396 46.44304733 91.08959396 46.44304733 91.58178711 45.07983398 C92.21741282 43.31889373 92.85291295 41.55790815 93.48828125 39.796875 C93.79497238 38.94698502 94.10166351 38.09709503 94.41764832 37.22145081 C97.87570688 27.61065818 101.1255372 17.93349304 104.27661133 8.21777344 C105.17148277 5.47426611 106.08744165 2.73767504 107 0 C120.86 0 134.72 0 149 0 C148.86722656 4.96546875 148.73445312 9.9309375 148.59765625 15.046875 C148.4165089 21.9478465 148.23862861 28.84889867 148.0625 35.75 C148.03960152 36.64699993 148.01670303 37.54399986 147.99311066 38.46818161 C147.26765065 66.99775803 146.72309753 95.52583111 146.375 124.0625 C146.36475422 124.90195663 146.35450844 125.74141327 146.34395218 126.60630798 C146.22103838 136.73746094 146.10915514 146.86867952 146 157 C136.76 157 127.52 157 118 157 C118.1228341 151.08566899 118.24605784 145.17134887 118.37039185 139.25704956 C118.41518355 137.12482988 118.45984062 134.99260738 118.50436401 132.86038208 C118.74192721 121.50781876 118.98744319 110.15575006 119.2890625 98.8046875 C119.31216995 97.92109055 119.3352774 97.03749359 119.35908508 96.12712097 C119.46637555 92.029338 119.5770256 87.93171563 119.69506836 83.83422852 C120.10198567 68.8910494 120.04243623 53.9473448 120 39 C116.5373445 49.36440594 113.07648626 59.7294103 109.6176939 70.09510612 C108.01019241 74.91247451 106.40215629 79.72966281 104.79272461 84.54638672 C96.73670199 108.65803056 88.77148505 132.79505173 81 157 C71.43 157 61.86 157 52 157 C51.44127197 154.69402832 50.88254395 152.38805664 50.30688477 150.01220703 C48.42227685 142.23641078 46.53366508 134.46159061 44.64328098 126.68719673 C43.50164739 121.99161362 42.36120463 117.29574918 41.22387695 112.59912109 C35.4247538 88.65594308 29.42753789 64.78273907 23 41 C21.48969564 55.59951092 20.44730281 70.17450438 19.7109375 84.83203125 C19.60208965 86.93196122 19.49283889 89.03187034 19.38320923 91.13175964 C19.09977127 96.58108903 18.82169843 102.03067853 18.54486084 107.48034668 C18.25980088 113.07235651 17.96950375 118.66409439 17.6796875 124.25585938 C17.11475429 135.17031901 16.55599208 146.08508124 16 157 C7.09 157 -1.82 157 -11 157 C-10.43726599 147.28672162 -9.75130715 137.58991857 -8.984375 127.890625 C-8.88779099 126.66738022 -8.79120697 125.44413544 -8.69169617 124.18382263 C-8.48534254 121.57118644 -8.27897721 118.95855118 -8.07260132 116.34591675 C-5.9077891 88.88928382 -3.97534238 61.4211978 -2.1875 33.9375 C-2.13192429 33.08327957 -2.07634857 32.22905914 -2.01908875 31.34895325 C-1.33980809 20.8996962 -0.66895485 10.44992871 0 0 Z " fill="#DB9727" transform="translate(416,955)"/>
<path d="M0 0 C1.60279192 0.00015914 3.20558896 0.00585476 4.80834961 0.01586914 C5.65038437 0.01728409 6.49241913 0.01869904 7.35997009 0.02015686 C10.06024671 0.02577276 12.76044163 0.03832791 15.46069336 0.05102539 C17.28686404 0.05603834 19.11303602 0.06060161 20.93920898 0.06469727 C25.42556878 0.07574735 29.9118672 0.0930226 34.39819336 0.11352539 C34.62206223 0.8378627 34.84593109 1.56220001 35.07658386 2.30848694 C40.68062516 20.42986916 46.35011535 38.52931433 52.09333801 56.60716248 C52.7226247 58.58859352 53.35131623 60.57021255 53.9798584 62.55187988 C58.98931317 78.34371364 64.03651841 94.12273328 69.14428711 109.88305664 C69.61337026 111.33144909 70.08243071 112.77984889 70.5514679 114.22825623 C72.58029282 120.49165461 74.61150639 126.75423331 76.65361118 133.01331615 C77.28571545 134.95273211 77.91591315 136.89275531 78.54530334 138.83305359 C79.31320255 141.19969197 80.08445429 143.56524608 80.85960388 145.92951965 C81.3645211 147.48965034 81.3645211 147.48965034 81.87963867 149.08129883 C82.17461243 149.98603943 82.46958618 150.89078003 82.77349854 151.82293701 C83.39819336 154.11352539 83.39819336 154.11352539 83.39819336 157.11352539 C72.50819336 157.11352539 61.61819336 157.11352539 50.39819336 157.11352539 C49.42881836 153.75165039 48.45944336 150.38977539 47.46069336 146.92602539 C45.35422915 139.65092215 43.19293877 132.39589474 40.92944336 125.16821289 C40.72387314 124.51118881 40.51830292 123.85416473 40.3065033 123.17723083 C39.29236238 119.94071772 38.2718973 116.70633531 37.24414062 113.47412109 C36.87345459 112.2968042 36.50276855 111.1194873 36.12084961 109.90649414 C35.78835205 108.86001709 35.45585449 107.81354004 35.11328125 106.73535156 C34.39819336 104.11352539 34.39819336 104.11352539 34.39819336 101.11352539 C17.23819336 101.11352539 0.07819336 101.11352539 -17.60180664 101.11352539 C-17.93180664 102.76352539 -18.26180664 104.41352539 -18.60180664 106.11352539 C-19.61519313 108.75311792 -20.66335779 111.34972867 -21.76977539 113.94946289 C-22.08707108 114.70587067 -22.40436676 115.46227844 -22.73127747 116.24160767 C-23.74625806 118.65910945 -24.76747885 121.07391083 -25.78930664 123.48852539 C-26.79211271 125.86790848 -27.79354144 128.24786181 -28.79377747 130.62832642 C-29.41433196 132.1041407 -30.03645879 133.57929558 -30.66069031 135.05355835 C-33.74532203 142.36893563 -36.6512009 149.73701103 -39.60180664 157.11352539 C-51.15180664 157.11352539 -62.70180664 157.11352539 -74.60180664 157.11352539 C-73.17297538 152.82703161 -71.77467726 149.19998999 -69.80102539 145.20336914 C-68.96438354 143.49564331 -68.96438354 143.49564331 -68.11083984 141.75341797 C-67.81472809 141.1520401 -67.51861633 140.55066223 -67.21353149 139.93106079 C-60.61875503 126.51612916 -54.4178575 112.94721842 -48.35295105 99.28469849 C-44.80047815 91.29254755 -41.18178981 83.3303334 -37.57046509 75.36465454 C-31.12959308 61.15467121 -24.70795552 46.93609858 -18.32897949 32.69821167 C-17.60579649 31.08430573 -16.88209953 29.47062998 -16.15783691 27.85720825 C-12.49468243 19.69463202 -8.88306918 11.52810119 -5.52514648 3.23413086 C-4.02127174 -0.21977079 -4.11447809 0.12968429 0 0 Z M12.39819336 27.11352539 C12.07657227 27.89252197 11.75495117 28.67151855 11.42358398 29.47412109 C10.19120405 32.45815945 8.95829607 35.44197892 7.72497559 38.42562866 C7.17526019 39.75566314 6.62569881 41.08576129 6.07629395 42.41592407 C3.3479324 49.02058496 0.6164699 55.6232363 -2.17993164 62.19946289 C-2.55182617 63.0743335 -2.9237207 63.9492041 -3.30688477 64.85058594 C-3.98991785 66.45236237 -4.67599022 68.05284708 -5.36547852 69.65185547 C-7.02180034 73.25359115 -7.02180034 73.25359115 -7.60180664 77.11352539 C4.27819336 77.11352539 16.15819336 77.11352539 28.39819336 77.11352539 C26.61632911 69.98606841 24.83899477 62.92152939 22.76928711 55.88305664 C22.5341188 55.08115402 22.2989505 54.2792514 22.05665588 53.45304871 C21.56653011 51.78664145 21.07498608 50.12065068 20.58203125 48.45507812 C19.82647185 45.89477722 19.08209187 43.33137366 18.33764648 40.76782227 C17.85720859 39.13936573 17.3761137 37.51110284 16.89428711 35.88305664 C16.56297035 34.7332708 16.56297035 34.7332708 16.22496033 33.56025696 C15.67516277 31.72590978 15.04402231 29.91630433 14.39819336 28.11352539 C13.73819336 27.78352539 13.07819336 27.45352539 12.39819336 27.11352539 Z " fill="#DB9727" transform="translate(1522.601806640625,954.886474609375)"/>
<path d="M0 0 C32.67 0 65.34 0 99 0 C99 22 99 22 98 25 C75.56 25 53.12 25 30 25 C30 33.58 30 42.16 30 51 C29.67 55.29 29.34 59.58 29 64 C48.8 64 68.6 64 89 64 C88.34 72.58 87.68 81.16 87 90 C67.53 90.33 48.06 90.66 28 91 C27.34 104.53 26.68 118.06 26 132 C48.77 131.67 71.54 131.34 95 131 C94 150 94 150 93 157 C60 157 27 157 -7 157 C-6.566875 150.214375 -6.13375 143.42875 -5.6875 136.4375 C-3.90429591 106.9419395 -2.95676782 77.42025725 -2.00268555 47.88842773 C-1.94229011 46.03113289 -1.8818908 44.17383817 -1.82148743 42.31654358 C-1.70947979 38.86947288 -1.60060764 35.4223259 -1.49406433 31.9750824 C-1.44321719 30.38491593 -1.39230206 28.79475163 -1.34130859 27.20458984 C-1.32155818 26.53738135 -1.30180777 25.87017286 -1.28145885 25.18274593 C-1.00673674 16.77739196 -0.46685162 8.40332919 0 0 Z " fill="#DB9727" transform="translate(2031,955)"/>
<path d="M0 0 C10.89 0 21.78 0 33 0 C34.12535156 4.00511719 35.25070312 8.01023437 36.41015625 12.13671875 C44.08660497 39.45102723 51.77051114 66.76314467 59.5 94.0625 C59.97749191 95.74900162 59.97749191 95.74900162 60.46463013 97.46957397 C64.22000186 110.73828892 64.22000186 110.73828892 68 124 C71.89067081 115.7252722 75.3582883 107.29990352 78.75866699 98.81613159 C84.78191884 83.79659226 90.97095403 68.85170055 97.25 53.9375 C103.73637554 38.52484258 110.0463072 23.06384897 116.04882812 7.45556641 C117.01425039 4.96321088 118.00734586 2.48163534 119 0 C130.22 0 141.44 0 153 0 C151.86304688 2.55621094 150.72609375 5.11242187 149.5546875 7.74609375 C145.06494964 17.84574248 140.59204352 27.95279627 136.125 38.0625 C135.71814972 38.98319275 135.31129944 39.9038855 134.89212036 40.85247803 C128.14996761 56.11202182 121.42823854 71.38045364 114.73022461 86.65942383 C113.99203579 88.34326656 113.2538359 90.02710444 112.515625 91.7109375 C112.15014053 92.54463364 111.78465607 93.37832977 111.40809631 94.23728943 C109.04440831 99.62638444 106.67296209 105.01200642 104.29649353 110.39547729 C102.65360412 114.1175411 101.01292027 117.8405754 99.37234497 121.56365967 C98.59566096 123.32459686 97.81792728 125.08507153 97.03903198 126.84503174 C93.10715243 135.73029855 89.26892147 144.59929599 85.90356445 153.71777344 C85 156 85 156 84 157 C81.26105915 157.08858646 78.5474673 157.11523479 75.80859375 157.09765625 C74.98875504 157.0962413 74.16891632 157.09482635 73.32423401 157.09336853 C70.69528618 157.08775289 68.06642227 157.07519779 65.4375 157.0625 C63.65950643 157.05748701 61.88151154 157.05292376 60.10351562 157.04882812 C55.73564455 157.03777839 51.36783652 157.02050331 47 157 C46.75303879 156.12401657 46.50607758 155.24803314 46.25163269 154.34550476 C40.08458515 132.51266449 33.67173356 110.7681121 27.00913239 89.08161163 C26.05767438 85.98246711 25.10902039 82.88246668 24.16022873 79.78250504 C17.60107868 58.35557097 10.9720634 36.95100501 4.21606445 15.58520508 C3.92535568 14.66253342 3.63464691 13.73986176 3.33512878 12.78923035 C2.80097238 11.09429185 2.26452539 9.40007274 1.72529602 7.70674133 C0 2.22504154 0 2.22504154 0 0 Z " fill="#DB9727" transform="translate(696,955)"/>
<path d="M0 0 C1.20574677 -0.00580078 1.20574677 -0.00580078 2.43585205 -0.01171875 C14.03483998 -0.00556462 24.20802586 1.06228203 33.1484375 8.98046875 C42.68234697 18.78068854 45.27566232 30.46108545 45.24047852 43.7590332 C45.00160277 57.51546602 40.69276697 70.46592283 31.05859375 80.57421875 C17.72171046 92.6894028 3.55257619 93.67863883 -13.73657227 93.2512207 C-15.93146099 93.07987427 -17.89035447 92.67614327 -20.00390625 92.07421875 C-20.8712899 88.63991464 -21.72051576 85.20137424 -22.56640625 81.76171875 C-22.81326172 80.78525391 -23.06011719 79.80878906 -23.31445312 78.80273438 C-23.54326172 77.86494141 -23.77207031 76.92714844 -24.0078125 75.9609375 C-24.22252197 75.09686279 -24.43723145 74.23278809 -24.65844727 73.3425293 C-25.00390625 71.07421875 -25.00390625 71.07421875 -24.00390625 68.07421875 C-23.24078125 68.23921875 -22.47765625 68.40421875 -21.69140625 68.57421875 C-12.06927621 69.87891435 -1.77094176 69.92692555 6.37109375 63.88671875 C12.20861419 57.63223257 14.34352976 50.70467465 14.21484375 42.1953125 C13.72548117 37.45024318 12.06382928 33.47332048 9.18359375 29.69921875 C4.64528053 26.32790036 -0.19040087 25.81220514 -5.71484375 25.66015625 C-6.83681152 25.6245459 -7.9587793 25.58893555 -9.11474609 25.55224609 C-10.53613139 25.51784478 -11.9575184 25.48351438 -13.37890625 25.44921875 C-15.8094245 25.38294301 -18.23992479 25.31600607 -20.67041016 25.24853516 C-22.46353134 25.1991832 -22.46353134 25.1991832 -24.2928772 25.14883423 C-25.18751678 25.12421112 -26.08215637 25.09958801 -27.00390625 25.07421875 C-27.70003321 47.44752091 -28.34432766 69.82187694 -28.93383789 92.19824219 C-29.02229484 95.55017867 -29.11255749 98.90205936 -29.2043457 102.25390625 C-29.71345743 120.86696357 -30.12338203 139.45192719 -30.00390625 158.07421875 C-40.23390625 158.07421875 -50.46390625 158.07421875 -61.00390625 158.07421875 C-60.88273437 155.68300781 -60.7615625 153.29179688 -60.63671875 150.828125 C-58.12781682 100.92705098 -56.4131546 51.01647946 -55.00390625 1.07421875 C-49.10391246 0.92869279 -43.20385063 0.78645811 -37.30371094 0.64697266 C-35.30629456 0.59932375 -33.30889759 0.55085229 -31.31152344 0.50146484 C-20.87478799 0.24396231 -10.44020869 0.02634384 0 0 Z " fill="#DB9727" transform="translate(1405.00390625,953.92578125)"/>
<path d="M0 0 C0.33 9.24 0.66 18.48 1 28 C-4.60516778 26.87896644 -9.99353357 25.75161661 -15.5 24.375 C-31.15539878 21.05673613 -46.93005562 21.9330799 -60.9375 30.25 C-72.64887884 38.41714577 -79.61053105 51.12526745 -83 64.875 C-85.77832818 80.85492676 -85.19285701 98.99979458 -76.3359375 113.1171875 C-75.89507813 113.73851562 -75.45421875 114.35984375 -75 115 C-74.55914063 115.62132812 -74.11828125 116.24265625 -73.6640625 116.8828125 C-66.7112128 125.75633891 -56.9376738 130.22379656 -46 132 C-33.13198034 132.81595551 -21.4605886 131.12787358 -9 128 C-7.84612793 127.71334473 -7.84612793 127.71334473 -6.66894531 127.42089844 C-4.7785706 126.95017272 -2.88917762 126.47550729 -1 126 C-1.4761093 129.89621332 -1.95642326 133.79189716 -2.4375 137.6875 C-2.63956055 139.34168945 -2.63956055 139.34168945 -2.84570312 141.02929688 C-2.97783203 142.09599609 -3.10996094 143.16269531 -3.24609375 144.26171875 C-3.36654053 145.24100342 -3.4869873 146.22028809 -3.61108398 147.22924805 C-3.97847425 149.8466442 -4.45323877 152.41474783 -5 155 C-33.41991939 159.97114101 -60.98185101 162.77483347 -86.55859375 146.72265625 C-102.32212687 135.59990728 -111.80366056 120.44288404 -115.3046875 101.47265625 C-119.18529666 75.31576256 -116.39498176 47.23555846 -100.5 25.4375 C-99.02516955 23.60446115 -97.52770811 21.7892077 -96 20 C-95.45988281 19.34773437 -94.91976563 18.69546875 -94.36328125 18.0234375 C-70.64971482 -8.13913705 -31.51487352 -6.3029747 0 0 Z " fill="#DB9727" transform="translate(2003,956)"/>
<path d="M0 0 C0.47990579 2.60564234 0.69741762 4.81739495 0.75 7.4375 C0.77892334 8.15164063 0.80784668 8.86578125 0.83764648 9.6015625 C1.05162888 15.39794894 1.11057911 21.20074014 1 27 C-2.89686923 26.31443967 -6.4971766 25.17806603 -10.25 23.9375 C-19.38745503 21.31168398 -30.86902041 19.60714153 -39.8125 23.6875 C-43.50852508 26.36892996 -45.9608385 28.921677 -48 33 C-48.65386543 40.58483898 -46.90597506 45.28395224 -42.234375 51.2578125 C-38.48712923 55.60992865 -34.47013241 59.45614505 -30.09765625 63.16796875 C-26.21129818 66.56219954 -22.40982706 70.12447897 -19 74 C-19 74.66 -19 75.32 -19 76 C-18.45085937 76.20882813 -17.90171875 76.41765625 -17.3359375 76.6328125 C-14.14161624 78.50239852 -11.97721254 81.07449583 -9.625 83.875 C-9.14111816 84.44855225 -8.65723633 85.02210449 -8.15869141 85.61303711 C1.52995825 97.47115126 4.25579818 109.02281031 3 124 C0.77763947 135.39118514 -5.46977744 144.42190025 -15 151 C-36.52503771 162.5247369 -61.50477434 158.18749797 -84 152 C-84.3384185 148.3129484 -84.66981608 144.62529741 -85 140.9375 C-85.14308594 139.37999023 -85.14308594 139.37999023 -85.2890625 137.79101562 C-85.75899954 132.50422394 -86.12045745 127.30765619 -86 122 C-84.7934375 122.48210937 -83.586875 122.96421875 -82.34375 123.4609375 C-80.72927018 124.09922022 -79.11468098 124.73722632 -77.5 125.375 C-76.31277344 125.85066406 -76.31277344 125.85066406 -75.1015625 126.3359375 C-63.61256474 130.85619891 -49.65093342 134.22108481 -37.6875 129.3125 C-33.1926264 126.86075076 -30.62499046 123.87497139 -29 119 C-28.26675885 111.91200221 -30.09767692 107.86930726 -34 102 C-36.16879872 99.3846436 -38.53531262 97.03909151 -40.98828125 94.69140625 C-41.65031052 94.03978012 -42.31233978 93.38815399 -42.99443054 92.71678162 C-45.09102512 90.65544985 -47.20056984 88.60810708 -49.3125 86.5625 C-79.86666303 56.81991539 -79.86666303 56.81991539 -81 39 C-81.10838381 26.19522665 -77.57327772 15.930234 -68.875 6.4375 C-54.55803522 -7.27409629 -17.19915913 -11.26192169 0 0 Z " fill="#DB9727" transform="translate(1264,957)"/>
<path d="M0 0 C0.95132813 0.65935547 0.95132813 0.65935547 1.921875 1.33203125 C12.26890941 9.27544041 17.30741144 22.4173605 19 35 C20.09037468 52.92827605 16.89683999 69.94898141 5.125 84 C-5.71096098 95.14555987 -20.46114024 99.94948487 -35.82641602 100.29248047 C-52.98927629 100.42729746 -68.30984099 97.43095724 -81.3125 85.375 C-92.33209874 73.74222804 -95.05168017 59.47821032 -95 44 C-94.10644117 28.36272051 -88.72124995 14.28585553 -77.4375 3.3125 C-71.84032603 -1.49586685 -65.87751272 -4.42093273 -59 -7 C-58.113125 -7.3403125 -57.22625 -7.680625 -56.3125 -8.03125 C-37.88530156 -13.81653323 -15.6945766 -11.20637934 0 0 Z M-62.75 18.8125 C-71.17535537 28.92292644 -72.06328418 41.21601183 -71.23193359 53.83837891 C-70.71589986 58.64781333 -69.26021348 62.75557271 -67 67 C-66.66097656 67.66128906 -66.32195312 68.32257813 -65.97265625 69.00390625 C-61.72683416 75.9996914 -53.68670649 79.92430491 -46 82 C-34.95767789 82.99334697 -26.13857774 82.13173502 -16.75 75.8125 C-7.68202848 66.53843822 -4.59552932 56.45034993 -3.94140625 43.66015625 C-4.12027434 32.48686305 -6.94167874 23.3229376 -14.69921875 15.2265625 C-21.49965387 8.96099307 -29.31713334 6.62560377 -38.4765625 6.79296875 C-48.68567872 7.63055878 -55.70974724 11.52080964 -62.75 18.8125 Z " fill="#DB9727" transform="translate(215,791)"/>
<path d="M0 0 C7.92 0 15.84 0 24 0 C24.074102 10.37428059 24.06575031 20.69955434 23.5625 31.0625 C23.52326416 31.91231445 23.48402832 32.76212891 23.44360352 33.63769531 C23.2676238 36.95462587 23.05545721 39.83362838 22 43 C38.17 43 54.34 43 71 43 C71 35.08 71 27.16 71 19 C71.28797989 12.66444242 71.60439072 6.32974846 72 0 C79.92 0 87.84 0 96 0 C95.81824219 3.16529297 95.81824219 3.16529297 95.6328125 6.39453125 C94.34714158 29.58637566 93.54698767 52.78380446 92.875 76 C92.8527964 76.76693302 92.8305928 77.53386604 92.80771637 78.32403946 C92.53162175 87.88250571 92.26317249 97.44116911 92 107 C84.08 107 76.16 107 68 107 C67.88276035 96.8367876 68.34037284 86.82366885 69 76.6875 C69.33 71.510625 69.66 66.33375 70 61 C54.16 61 38.32 61 22 61 C21.71151629 73.14540556 21.71151629 73.14540556 21.43188477 85.29101562 C21.39370882 86.82943498 21.35523533 88.36784699 21.31640625 89.90625 C21.29993042 90.68581055 21.28345459 91.46537109 21.26647949 92.26855469 C21.24629761 93.0390918 21.22611572 93.80962891 21.20532227 94.60351562 C21.18977798 95.26081665 21.1742337 95.91811768 21.15821838 96.59533691 C20.92910752 100.07745086 20.43283696 103.53730431 20 107 C12.08 107 4.16 107 -4 107 C-3.79503906 103.38160156 -3.59007812 99.76320313 -3.37890625 96.03515625 C-1.60256078 64.01914451 -0.41849483 32.06536255 0 0 Z " fill="#DB9727" transform="translate(4,782)"/>
<path d="M0 0 C10.89 0 21.78 0 33 0 C32.814375 4.7334375 32.814375 4.7334375 32.625 9.5625 C32.57867432 10.75593018 32.53234863 11.94936035 32.48461914 13.17895508 C32.24006973 19.36679631 31.97802075 25.55298016 31.67556763 31.73828125 C29.64045091 73.46640371 28.89872334 115.2353728 28 157 C17.11 157 6.22 157 -5 157 C-5 147.70440573 -4.87194391 138.53860414 -4.37890625 129.2734375 C-4.28258156 127.37182358 -4.28258156 127.37182358 -4.18431091 125.43179321 C-4.01451333 122.08555789 -3.84195207 118.73949298 -3.66760254 115.39349365 C-2.10312568 85.34772474 -0.94203858 55.33285512 -0.4375 25.25 C-0.39411141 22.7760376 -0.35049234 20.30207923 -0.30664062 17.828125 C-0.20137287 11.88546218 -0.10076087 5.94274759 0 0 Z " fill="#DB9727" transform="translate(596,955)"/>
<path d="M0 0 C10.89 0 21.78 0 33 0 C32.814375 4.95 32.814375 4.95 32.625 10 C32.57867432 11.24015869 32.53234863 12.48031738 32.48461914 13.75805664 C32.23974752 20.17578835 31.97734931 26.59196769 31.67556763 33.0072937 C29.73397993 74.3175732 28.92178244 115.65707694 28 157 C17.11 157 6.22 157 -5 157 C-5 142.37756635 -5 142.37756635 -4.74047852 137.46069336 C-4.68364395 136.35080551 -4.62680939 135.24091766 -4.56825256 134.09739685 C-4.50576828 132.93990433 -4.443284 131.7824118 -4.37890625 130.58984375 C-4.28258156 128.71940147 -4.28258156 128.71940147 -4.18431091 126.81117249 C-3.980185 122.8531107 -3.77174929 118.89529397 -3.5625 114.9375 C-2.00800377 85.3761942 -0.91446023 55.84878891 -0.4375 26.25 C-0.39411982 23.67968344 -0.35050087 21.10937091 -0.30664062 18.5390625 C-0.20126062 12.35942013 -0.10070984 6.17972712 0 0 Z " fill="#DB9727" transform="translate(859,955)"/>
<path d="M0 0 C24.42 0 48.84 0 74 0 C73.67 5.94 73.34 11.88 73 18 C56.5 18 40 18 23 18 C23 24.27 23 30.54 23 37 C22.67 39.31 22.34 41.62 22 44 C36.52 44 51.04 44 66 44 C65.67 49.94 65.34 55.88 65 62 C50.48 62 35.96 62 21 62 C21 66.62 21 71.24 21 76 C20.67 80.62 20.34 85.24 20 90 C36.5 89.67 53 89.34 70 89 C70 98 70 98 69 107 C44.91 107 20.82 107 -4 107 C-4 95.75723585 -4 95.75723585 -3.74047852 91.48242188 C-3.68361877 90.51618393 -3.62675903 89.54994598 -3.56817627 88.5544281 C-3.50571716 87.53615433 -3.44325806 86.51788055 -3.37890625 85.46875 C-3.2467697 83.20908806 -3.11503134 80.94940281 -2.98364258 78.68969727 C-2.91464752 77.51545197 -2.84565247 76.34120667 -2.77456665 75.13137817 C-1.31149858 50.07815344 -0.44650816 25.09375842 0 0 Z " fill="#DB9727" transform="translate(351,782)"/>
<path d="M0 0 C28.05 0 56.1 0 85 0 C84.67 5.94 84.34 11.88 84 18 C73.77 18 63.54 18 53 18 C52.87625 22.66125 52.7525 27.3225 52.625 32.125 C51.93494726 57.08954719 50.94885328 82.04423742 50 107 C42.08 107 34.16 107 26 107 C26.12117188 104.68097656 26.24234375 102.36195313 26.3671875 99.97265625 C27.77917055 72.65609813 28.92232781 45.33160101 30 18 C19.77 18 9.54 18 -1 18 C-0.505 9.09 -0.505 9.09 0 0 Z " fill="#DB9727" transform="translate(249,782)"/>
<path d="M0 0 C7.92 0 15.84 0 24 0 C24.21610385 15.39035259 23.49194201 30.72755237 22.77319336 46.09619141 C22.59561641 49.89387458 22.42464383 53.69182214 22.25558567 57.48989296 C22.12339409 60.44464707 21.98790861 63.39924311 21.85142326 66.35380173 C21.78706869 67.75467891 21.72367985 69.15560084 21.66131783 70.55656815 C21.57383763 72.51003159 21.48146785 74.46327418 21.38891602 76.41650391 C21.33784195 77.52216705 21.28676788 78.6278302 21.23414612 79.76699829 C20.98596852 83.19374134 20.48588394 86.59881243 20 90 C43.265 89.505 43.265 89.505 67 89 C66.67 94.94 66.34 100.88 66 107 C42.9 107 19.8 107 -4 107 C-4 92.41056643 -4 92.41056643 -3.60205078 87.12475586 C-3.47526443 85.34809288 -3.47526443 85.34809288 -3.34591675 83.53553772 C-3.25496735 82.29533371 -3.16401794 81.0551297 -3.0703125 79.77734375 C-1.95307348 63.75048603 -1.39211599 47.72426378 -0.93554688 31.66699219 C-0.83210333 28.07149495 -0.72236238 24.47618921 -0.61328125 20.88085938 C-0.40297738 13.92073861 -0.19975957 6.9604326 0 0 Z " fill="#DB9727" transform="translate(449,782)"/>
<path d="M0 0 C12 0 12 0 14.796875 2.69921875 C15.49480337 4.00464114 16.14253852 5.3376029 16.75 6.6875 C17.55387771 8.24260637 18.35863477 9.79725836 19.1640625 11.3515625 C19.60137695 12.23489258 20.03869141 13.11822266 20.48925781 14.02832031 C22.20788119 17.40890916 24.03986499 20.71866179 25.8984375 24.0234375 C32.9165945 36.52337827 39.79151158 49.07351196 46 62 C46.33 62.66 46.66 63.32 47 64 C47 42.88 47 21.76 47 0 C50.63 0 54.26 0 58 0 C58 28.38 58 56.76 58 86 C54.37 86 50.74 86 47 86 C44.57750218 83.18767494 43.4992001 81.29332482 42 78 C40.83467918 75.89968059 39.65643823 73.80650259 38.46875 71.71875 C37.13862222 69.31645707 35.82009067 66.90782024 34.5 64.5 C33.79613874 63.21935842 33.09219889 61.93876003 32.38818359 60.65820312 C30.60164321 57.40617116 28.8189057 54.15207353 27.03796387 50.89697266 C26.03276508 49.05988115 25.02668874 47.22327247 24.02050781 45.38671875 C22.21806583 42.09327587 20.42036042 38.79730766 18.625 35.5 C18.08423828 34.51064453 17.54347656 33.52128906 16.98632812 32.50195312 C16.48810547 31.58349609 15.98988281 30.66503906 15.4765625 29.71875 C15.04424316 28.92404297 14.61192383 28.12933594 14.16650391 27.31054688 C12.96966562 24.93991532 11.98627239 22.46568097 11 20 C10.67 41.78 10.34 63.56 10 86 C6.7 86 3.4 86 0 86 C0 57.62 0 29.24 0 0 Z " fill="#FFFFFF" transform="translate(716,1189)"/>
<path d="M0 0 C3.63 0 7.26 0 11 0 C11.33 30.03 11.66 60.06 12 91 C8.7 91 5.4 91 2 91 C1.505 87.535 1.505 87.535 1 84 C0.54109375 84.40992188 0.0821875 84.81984375 -0.390625 85.2421875 C-1.00421875 85.78101563 -1.6178125 86.31984375 -2.25 86.875 C-2.85328125 87.40867187 -3.4565625 87.94234375 -4.078125 88.4921875 C-9.90183115 93.06119273 -15.83948365 92.54598937 -23 92 C-29.66502684 90.02517723 -33.61002483 84.60248456 -37.33203125 78.9921875 C-42.2971846 69.20223849 -41.76071796 53.9592646 -38.4375 43.6875 C-35.25310232 36.69735876 -31.11698555 31.6042171 -24 28.5 C-17.34153857 26.23692776 -12.28359 26.59880298 -5.796875 29.05078125 C-4 30 -4 30 -1 33 C-0.67 22.11 -0.34 11.22 0 0 Z M-25.25 43.375 C-30.44389021 51.16583531 -30.04886557 61.63052544 -28.5703125 70.609375 C-26.96339185 75.72771486 -23.69520981 79.52121871 -19 82 C-14.33564892 83.05454894 -10.98656619 82.46536141 -6.6875 80.4375 C-1.80713839 76.01112552 0.18567047 72.0657505 0.56640625 65.56640625 C0.58616798 63.56520131 0.58437788 61.56368292 0.5625 59.5625 C0.58634766 58.56412109 0.61019531 57.56574219 0.63476562 56.53710938 C0.62156514 49.84446219 -0.49633195 45.09268383 -5 40 C-12.94462745 34.59089195 -18.94344159 36.71807724 -25.25 43.375 Z " fill="#FFFFFF" transform="translate(1814,1184)"/>
<path d="M0 0 C3.63 0 7.26 0 11 0 C11.01458252 1.70462402 11.02916504 3.40924805 11.04418945 5.16552734 C11.09609071 10.83340794 11.16144186 16.50102984 11.23571491 22.16866112 C11.28021103 25.60086031 11.31951085 29.03294646 11.34643555 32.46533203 C11.37771427 36.42245073 11.43249342 40.37908569 11.48828125 44.3359375 C11.49467117 45.55300385 11.5010611 46.77007019 11.50764465 48.02401733 C11.6700073 57.54265679 12.78091444 66.46171447 19 74 C23.65458111 76.95738668 28.68101011 76.46769062 34 76 C37.44733137 74.95081219 38.51734945 73.7943049 40.3671875 70.75 C43.68001624 64.46124036 45.09677419 59.22580693 45.20532227 52.1081543 C45.22526749 50.94732834 45.24521271 49.78650238 45.26576233 48.59049988 C45.28247482 47.34762711 45.29918732 46.10475433 45.31640625 44.82421875 C45.33718735 43.54392288 45.35796844 42.26362701 45.37937927 40.9445343 C45.43437572 37.55310271 45.48388312 34.16161265 45.53222656 30.77008057 C45.58260616 27.30435021 45.63820601 23.83870397 45.69335938 20.37304688 C45.80037433 13.58209637 45.90168848 6.79108185 46 0 C49.63 0 53.26 0 57 0 C57.04544314 7.24188806 57.08202562 14.48369633 57.10362434 21.72569752 C57.1139981 25.08956575 57.12803785 28.45333016 57.15087891 31.81713867 C57.17531301 35.69713005 57.18652564 39.5769766 57.1953125 43.45703125 C57.20563507 44.64706253 57.21595764 45.83709381 57.22659302 47.06318665 C57.22812957 58.66246238 56.39456812 70.76604943 48.36328125 79.8515625 C41.03726372 86.53552456 33.65234468 87.74667219 23.95703125 87.40625 C16.54096814 86.64487728 11.3034537 84.01758357 6.5625 78.25 C-0.27691704 67.99087444 -0.14744217 56.51812402 -0.09765625 44.62890625 C-0.0962413 43.35144028 -0.09482635 42.0739743 -0.09336853 40.75779724 C-0.08873516 37.38275254 -0.07977023 34.00777703 -0.06866455 30.63275146 C-0.05838426 27.18030389 -0.05385681 23.72784913 -0.04882812 20.27539062 C-0.03782466 13.51690569 -0.02057322 6.7584623 0 0 Z " fill="#FFFFFF" transform="translate(377,1189)"/>
<path d="M0 0 C1.79244141 0.01740234 1.79244141 0.01740234 3.62109375 0.03515625 C5.41740234 0.04869141 5.41740234 0.04869141 7.25 0.0625 C8.17683594 0.07410156 9.10367188 0.08570313 10.05859375 0.09765625 C12.72901681 8.85190861 15.39809387 17.60656994 18.06552505 26.36173439 C19.30459705 30.42852693 20.5441059 34.49518517 21.78466797 38.56152344 C22.98527596 42.49696027 24.18466479 46.43276688 25.38326263 50.36881638 C25.83726711 51.85898022 26.29168663 53.34901768 26.74655914 54.83891678 C28.99196159 62.19450458 31.21480093 69.55642129 33.37011719 76.93896484 C33.69639099 78.05500092 34.02266479 79.17103699 34.35882568 80.32089233 C35.05859375 83.09765625 35.05859375 83.09765625 35.05859375 86.09765625 C31.42859375 86.09765625 27.79859375 86.09765625 24.05859375 86.09765625 C21.93360723 80.72926925 20.11308373 75.28734808 18.37109375 69.78515625 C18.14462158 69.07939453 17.91814941 68.37363281 17.68481445 67.64648438 C16.75795466 64.68677594 16.05859375 62.21847168 16.05859375 59.09765625 C7.47859375 59.09765625 -1.10140625 59.09765625 -9.94140625 59.09765625 C-10.60140625 62.06765625 -11.26140625 65.03765625 -11.94140625 68.09765625 C-12.35441207 69.70749707 -12.78015317 71.31425716 -13.23046875 72.9140625 C-13.44960938 73.69716797 -13.66875 74.48027344 -13.89453125 75.28710938 C-14.11625 76.07021484 -14.33796875 76.85332031 -14.56640625 77.66015625 C-14.79585938 78.47806641 -15.0253125 79.29597656 -15.26171875 80.13867188 C-15.81945505 82.12560745 -16.38011721 84.11172136 -16.94140625 86.09765625 C-20.90140625 86.09765625 -24.86140625 86.09765625 -28.94140625 86.09765625 C-26.58655027 76.28316466 -23.7887624 66.64939161 -20.87109375 56.9921875 C-20.38437823 55.37510212 -19.89781892 53.75796972 -19.41140747 52.14079285 C-18.39965998 48.77941659 -17.38586629 45.41866631 -16.37060547 42.05834961 C-15.06736748 37.74418248 -13.76964476 33.42837833 -12.47343254 29.11209583 C-11.47374762 25.78555424 -10.47106778 22.45992133 -9.46747208 19.13455772 C-8.98725393 17.54196815 -8.50801047 15.94908435 -8.02975082 14.35590553 C-7.36518879 12.14363746 -6.69658142 9.93263318 -6.02685547 7.72192383 C-5.64729706 6.46350174 -5.26773865 5.20507965 -4.87667847 3.90852356 C-3.61612546 0.12005729 -3.61612546 0.12005729 0 0 Z M2.05859375 14.09765625 C0.93189439 18.09795582 -0.18889354 22.09985227 -1.30444336 26.10327148 C-1.68404241 27.46243935 -2.06519938 28.82117317 -2.44799805 30.17944336 C-3.00077784 32.14191972 -3.54776966 34.10593507 -4.09375 36.0703125 C-4.42366943 37.24859619 -4.75358887 38.42687988 -5.09350586 39.64086914 C-5.93672424 43.07856826 -6.44083073 46.59362762 -6.94140625 50.09765625 C-0.34140625 50.09765625 6.25859375 50.09765625 13.05859375 50.09765625 C12.09596008 43.35922055 10.54483287 37.18219183 8.67504883 30.66162109 C8.11724494 28.70918455 7.57301291 26.75327526 7.02929688 24.796875 C6.50432617 22.95416016 6.50432617 22.95416016 5.96875 21.07421875 C5.65043213 19.95096191 5.33211426 18.82770508 5.00415039 17.67041016 C4.33863812 14.95215796 4.33863812 14.95215796 2.05859375 14.09765625 Z " fill="#FFFFFF" transform="translate(317.94140625,1188.90234375)"/>
<path d="M0 0 C3.63 0 7.26 0 11 0 C11.33 11.55 11.66 23.1 12 35 C14.31 33.02 16.62 31.04 19 29 C24.05152721 26.47423639 28.61061353 26.80013659 34 28 C39.01763824 30.16670742 42.617726 33.97470043 44.87788391 38.92137146 C47.02025413 44.95737212 47.39813942 50.35239198 47.29296875 56.72265625 C47.28872391 57.70874374 47.28447906 58.69483124 47.28010559 59.71080017 C47.26345171 62.82832349 47.2258248 65.9451755 47.1875 69.0625 C47.17243597 71.18944372 47.15875059 73.31639768 47.14648438 75.44335938 C47.11359182 80.62916082 47.0619026 85.814467 47 91 C43.37 91 39.74 91 36 91 C35.98541748 89.73406006 35.97083496 88.46812012 35.95581055 87.16381836 C35.89763878 82.44657796 35.82040707 77.72980549 35.73754883 73.01293945 C35.70438816 70.97525655 35.67632888 68.93748376 35.65356445 66.8996582 C35.61985538 63.96266537 35.56753126 61.02648977 35.51171875 58.08984375 C35.50532883 57.18540024 35.4989389 56.28095673 35.49235535 55.34910583 C35.36571456 49.844597 34.6811275 45.84943648 32 41 C27.9660221 38.3106814 24.73961641 38.2073679 20 39 C16.77612886 40.64594265 14.61887414 42.87001521 12.86572266 46.07104492 C11.62443843 50.2706182 11.64232983 54.31673309 11.5859375 58.67578125 C11.56657135 59.6009404 11.5472052 60.52609955 11.5272522 61.47929382 C11.46764746 64.42360317 11.42114752 67.36795202 11.375 70.3125 C11.33680264 72.31316775 11.29774988 74.31381936 11.2578125 76.31445312 C11.16196159 81.2095038 11.07786 86.10463145 11 91 C7.37 91 3.74 91 0 91 C0 60.97 0 30.94 0 0 Z " fill="#FFFFFF" transform="translate(1012,1184)"/>
<path d="M0 0 C6.61953043 5.77551016 9.26608243 11.60291467 9.9609375 20.25 C10.07403459 28.21203547 8.56424216 36.04482747 3 42 C-6.69467009 49.73162855 -14.90685775 50.20931422 -27 49 C-27 60.22 -27 71.44 -27 83 C-30.63 83 -34.26 83 -38 83 C-38.02312283 71.93465142 -38.04091478 60.86930855 -38.05181217 49.80394077 C-38.05704113 44.66640434 -38.06413901 39.52888437 -38.07543945 34.39135742 C-38.08626787 29.4376859 -38.09227674 24.48403026 -38.09487724 19.53034782 C-38.09673157 17.63602384 -38.10035234 15.74170076 -38.10573006 13.8473835 C-38.11293989 11.20365614 -38.11399097 8.55999529 -38.11352539 5.91625977 C-38.11712067 5.12504227 -38.12071594 4.33382477 -38.12442017 3.51863098 C-38.11405216 -1.88594784 -38.11405216 -1.88594784 -37 -3 C-25.45496833 -5.10047042 -10.28766197 -6.44549851 0 0 Z M-27 6 C-27 16.89 -27 27.78 -27 39 C-16.94830983 40.17667469 -16.94830983 40.17667469 -8 37 C-4.15467687 33.81119545 -1.93877654 29.88163801 -1 25 C-0.91805732 18.73138494 -1.59834928 13.74914946 -6 9 C-12.96990572 4.45440931 -17.86392435 6 -27 6 Z " fill="#FFFFFF" transform="translate(1136,1192)"/>
<path d="M0 0 C4.64618926 4.05377898 8.51316615 8.63376001 9.21801758 14.95532227 C9.34134033 17.244836 9.37121351 19.51977759 9.375 21.8125 C9.39949219 22.58142578 9.42398437 23.35035156 9.44921875 24.14257812 C9.48376743 30.96594178 7.55676947 36.02149536 3.10546875 41.20703125 C-5.05864393 48.04094227 -12.38316172 49.94448712 -23 50 C-24.32 49.67 -25.64 49.34 -27 49 C-27 60.22 -27 71.44 -27 83 C-30.63 83 -34.26 83 -38 83 C-38.02312283 71.93465142 -38.04091478 60.86930855 -38.05181217 49.80394077 C-38.05704113 44.66640434 -38.06413901 39.52888437 -38.07543945 34.39135742 C-38.08626787 29.4376859 -38.09227674 24.48403026 -38.09487724 19.53034782 C-38.09673157 17.63602384 -38.10035234 15.74170076 -38.10573006 13.8473835 C-38.11293989 11.20365614 -38.11399097 8.55999529 -38.11352539 5.91625977 C-38.11712067 5.12504227 -38.12071594 4.33382477 -38.12442017 3.51863098 C-38.11405216 -1.88594784 -38.11405216 -1.88594784 -37 -3 C-25.45496833 -5.10047042 -10.28766197 -6.44549851 0 0 Z M-27 6 C-27 16.89 -27 27.78 -27 39 C-16.94830983 40.17667469 -16.94830983 40.17667469 -8 37 C-4.15467687 33.81119545 -1.93877654 29.88163801 -1 25 C-1.00875112 19.56555277 -1.20634528 14.1607826 -5 10 C-11.8513022 4.53698798 -17.89702092 6 -27 6 Z " fill="#FFFFFF" transform="translate(1530,1192)"/>
<path d="M0 0 C6.92233141 5.62519695 10.56620987 12.66683679 11.79296875 21.5234375 C12.74322496 32.35059917 11.61089751 43.4735616 4.41796875 52.0859375 C-1.56871701 58.17539899 -6.75006244 60.67119838 -15.39453125 60.8359375 C-22.85704349 60.8359375 -27.64371942 59.85545931 -33.1328125 54.72265625 C-41.26694164 46.04962 -42.62358296 37.001105 -42.41796875 25.38671875 C-41.87561356 15.45358383 -38.96721436 7.7142232 -31.5078125 0.9921875 C-22.13996764 -6.24947235 -9.79405657 -6.55248386 0 0 Z M-26.33203125 10.6484375 C-31.57175378 18.68267871 -32.6149173 27.75946323 -30.66796875 37.11328125 C-28.90515293 42.93444777 -26.59012865 47.02105001 -21.33203125 50.3359375 C-17.88634216 51.64529936 -15.85350167 52.05521444 -12.20703125 51.5234375 C-6.01793535 48.18132571 -2.64047645 44.34251757 -0.45703125 37.7109375 C1.84472442 29.13626528 0.96687055 21.77306321 -2.20703125 13.5234375 C-4.36861145 9.89918802 -7.05613595 6.70940759 -11.20703125 5.5234375 C-17.97405958 4.98637176 -21.41119924 5.72760549 -26.33203125 10.6484375 Z " fill="#FFFFFF" transform="translate(1229.20703125,1215.4765625)"/>
<path d="M0 0 C6.57042031 5.24643731 10.60465716 12.25391974 11.82421875 20.59375 C12.58036397 33.31734741 11.6005343 44.66162504 2.82421875 54.59375 C-5.21202061 60.97099297 -13.23507278 61.32010657 -23.17578125 60.59375 C-29.45213104 59.00067039 -33.66737945 54.9032008 -37.17578125 49.59375 C-42.9795409 38.95043358 -43.81363538 27.5006687 -40.55078125 15.84375 C-37.53312884 7.05365448 -33.67654179 1.84459556 -25.421875 -2.49609375 C-16.84010539 -5.97357604 -7.72401829 -4.99218417 0 0 Z M-27.42578125 12.34375 C-31.48723737 19.88645423 -32.4821632 28.13812082 -30.48828125 36.46484375 C-28.63585445 42.15333772 -26.53170277 47.46551265 -21.17578125 50.59375 C-16.43410839 52.18584454 -13.10991329 51.93626508 -8.42578125 50.21875 C-3.63474306 47.02101056 -0.92671863 41.61184863 0.4375 36.12890625 C1.77151688 27.38368451 1.05190689 19.47376044 -3.17578125 11.59375 C-5.72464813 8.17324988 -8.20001913 6.03089597 -12.41796875 5.09765625 C-19.16506707 4.72281745 -23.15784049 7.12737795 -27.42578125 12.34375 Z " fill="#FFFFFF" transform="translate(636.17578125,1215.40625)"/>
<path d="M0 0 C5.43947652 4.93877157 7.50976842 10.96279531 9 18 C9 22.29 9 26.58 9 31 C-3.54 31 -16.08 31 -29 31 C-26.96164292 41.10147042 -26.96164292 41.10147042 -20.875 48.875 C-14.19853073 51.48753146 -7.84768832 51.37823051 -1.0078125 49.47265625 C1 49 1 49 5 49 C5.495 53.455 5.495 53.455 6 58 C-3.02721561 61.93914863 -13.5537126 62.74924382 -23.109375 60.15625 C-30.36730292 56.9011793 -34.63744148 51.47906067 -37.8125 44.3125 C-41.31991217 33.64412132 -40.95438911 20.83699415 -36.1875 10.625 C-32.1615978 3.49086448 -27.45841418 -1.36247575 -19.5 -3.75 C-12.13356164 -4.48664384 -6.45167662 -3.7688012 0 0 Z M-24.75 10.6875 C-27.61036641 14.48942877 -27.61036641 14.48942877 -29 22 C-19.76 22 -10.52 22 -1 22 C-2.35386218 14.18739983 -2.35386218 14.18739983 -6 8 C-13.3965242 3.43618719 -18.65906715 4.73499745 -24.75 10.6875 Z " fill="#FFFFFF" transform="translate(1315,1215)"/>
<path d="M0 0 C5.66040956 5.29125241 8.05546289 11.6221652 8.43237305 19.22265625 C8.47334264 21.16901936 8.49911246 23.11574656 8.51171875 25.0625 C8.52966995 26.09439453 8.54762115 27.12628906 8.56611633 28.18945312 C8.61995456 31.45959484 8.65403022 34.72959281 8.6875 38 C8.72069642 40.22788447 8.75518821 42.45575004 8.79101562 44.68359375 C8.87566593 50.12229168 8.9426033 55.56094894 9 61 C5.7 61 2.4 61 -1 61 C-1.33 59.35 -1.66 57.7 -2 56 C-2.74830078 56.6496875 -2.74830078 56.6496875 -3.51171875 57.3125 C-9.28346483 61.78897093 -13.76357467 62.82622694 -21.0390625 62.453125 C-26.58214431 61.60484335 -29.02171598 59.29556532 -32.3125 54.9375 C-35.69079725 49.05676034 -35.97250983 43.11345372 -34.421875 36.5546875 C-32.03211759 30.14579263 -27.97527389 27.0732859 -22 24 C-15.33008994 21.13861855 -9.16209392 20.85675812 -2 21 C-2.5916101 19.20414803 -3.19874192 17.41340371 -3.8125 15.625 C-4.14894531 14.62726563 -4.48539063 13.62953125 -4.83203125 12.6015625 C-5.8506575 9.7154291 -5.8506575 9.7154291 -9 8 C-16.14987515 7.09747478 -22.40094485 8.26261416 -29 11 C-30.49821059 7.62902617 -31 5.79557881 -31 2 C-20.6284899 -2.85811475 -10.77838057 -5.46132094 0 0 Z M-21.9375 35.6875 C-24.67002795 40.0761055 -24.72795905 41.90428665 -24 47 C-22.20636089 49.8100346 -20.98119065 51.50940468 -18 53 C-13.95008008 53.25919487 -10.343706 53.0827383 -7.109375 50.4765625 C-2.9460046 45.68666548 -1.86888817 42.19339986 -1.9375 35.8125 C-1.94652344 34.72582031 -1.95554687 33.63914062 -1.96484375 32.51953125 C-1.97644531 31.68808594 -1.98804688 30.85664062 -2 30 C-10.03067482 29.56372592 -15.73265923 30.01073078 -21.9375 35.6875 Z " fill="#FFFFFF" transform="translate(820,1214)"/>
<path d="M0 0 C5.29932906 4.19016716 8.45559853 9.9109348 9.34851074 16.6177063 C9.45944356 19.47371333 9.45072307 22.30266869 9.390625 25.16015625 C9.38496521 26.19063583 9.37930542 27.22111542 9.37347412 28.28282166 C9.35125474 31.54320629 9.30108508 34.80245292 9.25 38.0625 C9.22991636 40.28579131 9.21166887 42.50910002 9.1953125 44.73242188 C9.15143723 50.15537999 9.08251013 55.5774977 9 61 C5.37 61 1.74 61 -2 61 C-2.0093457 59.70376709 -2.01869141 58.40753418 -2.02832031 57.07202148 C-2.06832288 52.24290144 -2.1341106 47.41441158 -2.20751953 42.58569336 C-2.23566962 40.49951296 -2.2569137 38.41322708 -2.27099609 36.3269043 C-2.29250802 33.32025385 -2.33920124 30.31486359 -2.390625 27.30859375 C-2.39185364 26.38227646 -2.39308228 25.45595917 -2.39434814 24.50157166 C-2.52830464 18.52077004 -3.49828682 14.89658138 -7 10 C-10.47045715 8.26477143 -14.20543579 8.53965425 -18 9 C-22.62592291 11.51408854 -24.51186537 15.08403121 -26 20 C-26.43552612 23.21929767 -26.48762216 26.40663323 -26.51171875 29.65234375 C-26.52966995 30.55247696 -26.54762115 31.45261017 -26.56611633 32.38002014 C-26.61995245 35.23246691 -26.65402888 38.08474893 -26.6875 40.9375 C-26.72069668 42.88088217 -26.7551885 44.82424267 -26.79101562 46.76757812 C-26.87566341 51.51159936 -26.94260136 56.255574 -27 61 C-30.63 61 -34.26 61 -38 61 C-38 40.54 -38 20.08 -38 -1 C-34.7 -1 -31.4 -1 -28 -1 C-27.67 0.98 -27.34 2.96 -27 5 C-26.56429688 4.59007812 -26.12859375 4.18015625 -25.6796875 3.7578125 C-17.73610754 -3.42923603 -9.82483492 -5.27630023 0 0 Z " fill="#FFFFFF" transform="translate(487,1214)"/>
<path d="M0 0 C5.95322592 4.02312741 8.24811367 9.54145849 9.85546875 16.25390625 C10.22206329 19.83827605 10.20787172 23.37658851 10.1484375 26.9765625 C10.14419266 27.96264999 10.13994781 28.94873749 10.13557434 29.96470642 C10.11892046 33.08222974 10.08129355 36.19908175 10.04296875 39.31640625 C10.02790472 41.44334997 10.01421934 43.57030393 10.00195312 45.69726562 C9.96906057 50.88306707 9.91737135 56.06837325 9.85546875 61.25390625 C6.22546875 61.25390625 2.59546875 61.25390625 -1.14453125 61.25390625 C-1.15911377 59.98796631 -1.17369629 58.72202637 -1.1887207 57.41772461 C-1.24689247 52.70048421 -1.32412418 47.98371174 -1.40698242 43.2668457 C-1.44014309 41.2291628 -1.46820237 39.19139001 -1.4909668 37.15356445 C-1.52467587 34.21657162 -1.57699999 31.28039602 -1.6328125 28.34375 C-1.63920242 27.43930649 -1.64559235 26.53486298 -1.6521759 25.60301208 C-1.77881669 20.09850325 -2.46340375 16.10334273 -5.14453125 11.25390625 C-9.17850915 8.56458765 -12.40491484 8.46127415 -17.14453125 9.25390625 C-20.36840239 10.8998489 -22.52565711 13.12392146 -24.27880859 16.32495117 C-25.52009282 20.52452445 -25.50220142 24.57063934 -25.55859375 28.9296875 C-25.5779599 29.85484665 -25.59732605 30.7800058 -25.61727905 31.73320007 C-25.67688379 34.67750942 -25.72338373 37.62185827 -25.76953125 40.56640625 C-25.80772861 42.567074 -25.84678137 44.56772561 -25.88671875 46.56835938 C-25.98256966 51.46341005 -26.06667125 56.3585377 -26.14453125 61.25390625 C-29.77453125 61.25390625 -33.40453125 61.25390625 -37.14453125 61.25390625 C-37.14453125 40.79390625 -37.14453125 20.33390625 -37.14453125 -0.74609375 C-34.17453125 -0.74609375 -31.20453125 -0.74609375 -28.14453125 -0.74609375 C-27.48453125 1.23390625 -26.82453125 3.21390625 -26.14453125 5.25390625 C-25.70882812 4.84398437 -25.273125 4.4340625 -24.82421875 4.01171875 C-17.25551892 -2.83615252 -9.33324804 -5.18112609 0 0 Z " fill="#FFFFFF" transform="translate(987.14453125,1213.74609375)"/>
<path d="M0 0 C1.1653125 -0.00257812 2.330625 -0.00515625 3.53125 -0.0078125 C6.5 0.125 6.5 0.125 8.5 1.125 C8.625 7.75 8.625 7.75 7.5 11.125 C6.48679687 11.05539062 6.48679687 11.05539062 5.453125 10.984375 C-0.046969 10.66428707 -0.046969 10.66428707 -5 12.6875 C-8.30162392 18.05263888 -8.85402666 23.98825327 -9.5 30.125 C-5.21 30.125 -0.92 30.125 3.5 30.125 C3.5 33.095 3.5 36.065 3.5 39.125 C-0.79 39.125 -5.08 39.125 -9.5 39.125 C-9.5 56.615 -9.5 74.105 -9.5 92.125 C-13.13 92.125 -16.76 92.125 -20.5 92.125 C-20.5 74.635 -20.5 57.145 -20.5 39.125 C-22.81 39.125 -25.12 39.125 -27.5 39.125 C-27.5 36.155 -27.5 33.185 -27.5 30.125 C-25.19 30.125 -22.88 30.125 -20.5 30.125 C-20.47421875 29.21878906 -20.4484375 28.31257813 -20.421875 27.37890625 C-19.68408712 11.53323464 -19.68408712 11.53323464 -13.75 5.28125 C-9.04158284 1.12214817 -6.37789442 -0.01411039 0 0 Z " fill="#FFFFFF" transform="translate(680.5,1182.875)"/>
<path d="M0 0 C3.63 0 7.26 0 11 0 C11 25.08 11 50.16 11 76 C21.56 76 32.12 76 43 76 C43 79.3 43 82.6 43 86 C28.81 86 14.62 86 0 86 C0 57.62 0 29.24 0 0 Z " fill="#FFFFFF" transform="translate(1689,1189)"/>
<path d="M0 0 C3.96 0 7.92 0 12 0 C13.83448254 5.90777169 15.66753588 11.81598419 17.49926758 17.72460938 C18.12257274 19.73449684 18.74626792 21.7442634 19.37036133 23.75390625 C20.26746603 26.64291169 21.16316617 29.53234937 22.05859375 32.421875 C22.3377916 33.31992859 22.61698944 34.21798218 22.90464783 35.14324951 C23.16484207 35.98381897 23.42503632 36.82438843 23.69311523 37.69042969 C23.92183823 38.42767273 24.15056122 39.16491577 24.38621521 39.92449951 C24.98179629 41.93844452 25.50662981 43.95885291 26 46 C26.25975868 45.15768578 26.25975868 45.15768578 26.52476501 44.2983551 C28.32158426 38.47402109 30.12275913 32.65104727 31.92651367 26.82885742 C32.59984243 24.65342506 33.27204535 22.47764391 33.94311523 20.30151367 C34.90575809 17.18056159 35.87239231 14.06087058 36.83984375 10.94140625 C37.14091537 9.96224747 37.441987 8.98308868 37.75218201 7.97425842 C38.032397 7.07340012 38.312612 6.17254181 38.60131836 5.24438477 C38.97105019 4.04858543 38.97105019 4.04858543 39.34825134 2.82862854 C40 1 40 1 41 0 C42.85287502 -0.07226502 44.70833878 -0.0838122 46.5625 -0.0625 C47.57441406 -0.05347656 48.58632812 -0.04445313 49.62890625 -0.03515625 C50.41136719 -0.02355469 51.19382812 -0.01195312 52 0 C51.36856817 3.46288576 50.50511943 6.71458463 49.37353516 10.04638672 C49.04294098 11.02445282 48.7123468 12.00251892 48.37173462 13.01022339 C48.01445282 14.05614655 47.65717102 15.1020697 47.2890625 16.1796875 C46.9202597 17.26581329 46.55145691 18.35193909 46.17147827 19.47097778 C45.39123988 21.76616617 44.60943328 24.06082196 43.82617188 26.35498047 C42.63228473 29.8536522 41.44469383 33.35441506 40.2578125 36.85546875 C39.49777358 39.08867026 38.73736888 41.32174733 37.9765625 43.5546875 C37.62332916 44.59656219 37.27009583 45.63843689 36.90615845 46.71188354 C35.1271981 51.90975756 33.25235874 56.98821619 31 62 C27.37 62 23.74 62 20 62 C17.3888016 54.21268849 14.78082042 46.4243103 12.17697144 38.63453865 C10.96787736 35.01770598 9.75766676 31.40125487 8.54492188 27.78564453 C7.37520931 24.29819326 6.20840705 20.80978093 5.04364014 17.3206749 C4.59812538 15.98783393 4.15155237 14.65534623 3.70391846 13.32321548 C3.07848107 11.46136199 2.45710927 9.59814425 1.8359375 7.73486328 C1.48063965 6.67341095 1.1253418 5.61195862 0.75927734 4.51834106 C0 2 0 2 0 0 Z " fill="#FFFFFF" transform="translate(1545,1213)"/>
<path d="M0 0 C1 2 1 2 0.44140625 3.9453125 C0.15136719 4.66460938 -0.13867188 5.38390625 -0.4375 6.125 C-0.86869141 7.21167969 -0.86869141 7.21167969 -1.30859375 8.3203125 C-1.53675781 8.87460938 -1.76492188 9.42890625 -2 10 C-2.804375 9.67 -3.60875 9.34 -4.4375 9 C-8.74171861 7.79179828 -12.56305907 7.33613952 -17 8 C-19.77564845 9.35762154 -19.77564845 9.35762154 -21 12 C-21.48582895 15.5230496 -21.48582895 15.5230496 -20 19 C-17.59117564 21.15942587 -14.8742351 22.54359228 -12 24 C-0.3083004 30.07509881 -0.3083004 30.07509881 2 37 C2.63157507 44.66173033 2.95794684 50.86780259 -2 57 C-9.51238343 62.82593001 -16.89316279 62.54872064 -26 62 C-28.91339559 61.34199009 -30.45700734 60.634781 -33 59 C-34.31223496 55.06329512 -33.24296256 52.87511856 -32 49 C-29.37142518 49.45061283 -27.11959608 49.94505045 -24.6875 51.0625 C-21.03603023 52.33626853 -17.81873076 52.73762204 -14 52 C-10.78986953 50.1235883 -10.78986953 50.1235883 -9 47 C-8.93209864 43.12962271 -9.20013589 40.9616757 -11.69921875 37.95703125 C-14.29356951 35.75029147 -16.75418194 34.59997219 -19.875 33.25 C-25.47377738 30.49167814 -29.68678773 27.99685701 -32 22 C-32.92049391 16.03140062 -32.91735694 10.93664243 -30.3125 5.4375 C-21.40538373 -3.95108201 -11.78863036 -4.92322111 0 0 Z " fill="#FFFFFF" transform="translate(1454,1214)"/>
<path d="M0 0 C-0.875 7.75 -0.875 7.75 -2 10 C-2.54527344 9.84402344 -3.09054687 9.68804688 -3.65234375 9.52734375 C-10.74105416 7.69760824 -16.66671573 7.30191178 -23.3125 10.6875 C-28.93265476 15.52344712 -31.24218642 20.75996563 -32 28 C-32.09306268 34.669492 -30.85172353 40.47749573 -27 46 C-21.61870813 50.99691388 -18.15164146 51.21094736 -11 51.16796875 C-7.71650279 50.98412711 -5.00754238 50.3366855 -2 49 C-1.34 52.3 -0.68 55.6 0 59 C-8.28918292 63.06000796 -18.55299191 63.70933514 -27.4375 61 C-33.80505062 58.01737825 -38.57533385 52.6567961 -41.4375 46.3125 C-45.19940561 35.41133352 -45.08435935 23.11218281 -40.125 12.625 C-36.20593687 5.60215329 -31.48212328 1.07238552 -23.90234375 -1.79296875 C-16.01101132 -3.92692253 -7.45380467 -3.31884733 0 0 Z " fill="#FFFFFF" transform="translate(1375,1214)"/>
<path d="M0 0 C0 5.94 0 11.88 0 18 C4.62 18 9.24 18 14 18 C14 20.97 14 23.94 14 27 C9.38 27 4.76 27 0 27 C0.11834371 32.48110206 0.24259888 37.96202634 0.37231445 43.44287109 C0.41560433 45.30709192 0.45728361 47.17135088 0.49731445 49.03564453 C0.55516113 51.7165882 0.61881405 54.397341 0.68359375 57.078125 C0.70030624 57.91055725 0.71701874 58.7429895 0.73423767 59.60064697 C0.75418289 60.38115417 0.77412811 61.16166138 0.79467773 61.96582031 C0.81799416 62.99174286 0.81799416 62.99174286 0.84178162 64.03839111 C0.97569627 66.36675645 0.97569627 66.36675645 2 70 C5.63 70 9.26 70 13 70 C13 73.3 13 76.6 13 80 C8.52348834 82.23825583 2.84558886 81.59993005 -2 81 C-5.10611151 79.55048129 -7.16019165 77.89274483 -9 75 C-10.99854733 69.34133566 -11.26689727 64.3163947 -11.1953125 58.34765625 C-11.19106766 56.99745644 -11.19106766 56.99745644 -11.18673706 55.61997986 C-11.17561278 52.7673468 -11.15052283 49.91503689 -11.125 47.0625 C-11.11496017 45.11914518 -11.10583608 43.17578541 -11.09765625 41.23242188 C-11.07569888 36.48815824 -11.04122301 31.74413376 -11 27 C-13.64 27 -16.28 27 -19 27 C-19 24.03 -19 21.06 -19 18 C-16.36 18 -13.72 18 -11 18 C-11 13.05 -11 8.1 -11 3 C-3.375 0 -3.375 0 0 0 Z " fill="#FFFFFF" transform="translate(1400,1195)"/>
<path d="M0 0 C1.15837626 4.05431692 0.83691257 6.21812119 -1 10 C-1.99 9.67 -2.98 9.34 -4 9 C-8.19128636 7.82677988 -11.64901013 7.57203378 -16 8 C-18.71107713 9.37716666 -18.71107713 9.37716666 -20 12 C-20.48582895 15.5230496 -20.48582895 15.5230496 -19 19 C-16.59710134 21.148328 -13.85182831 22.52523724 -11 24 C0.18910972 29.97087021 0.18910972 29.97087021 2.44140625 34.8203125 C4.11741511 41.36026315 4.3249754 48.54373097 1 54.5625 C-2.03103562 58.52294156 -5.12796771 60.82450207 -10 62 C-17.55179358 62.71181586 -25.47635954 63.34909364 -32 59 C-33.0625 57.1875 -33.0625 57.1875 -33 55 C-32.0625 51.75 -32.0625 51.75 -31 49 C-28.63753918 49.54518327 -26.46232661 50.20312106 -24.1875 51.0625 C-19.48435095 52.44577913 -15.75396537 52.64820459 -11.125 50.9375 C-8.68728433 49.06228897 -8.68728433 49.06228897 -8.0625 45.5625 C-7.96285757 41.39017483 -7.96285757 41.39017483 -10 38 C-13.05553842 36.21368523 -16.12959764 34.6826048 -19.32617188 33.17578125 C-24.84651294 30.43472169 -28.56904876 27.40934973 -31.03125 21.54296875 C-32.25517573 15.39274193 -32.19613555 10.53502944 -29 5 C-20.85660626 -4.55518813 -10.96803016 -4.1782972 0 0 Z " fill="#FFFFFF" transform="translate(909,1214)"/>
<path d="M0 0 C0 5.94 0 11.88 0 18 C4.62 18 9.24 18 14 18 C14 20.97 14 23.94 14 27 C9.38 27 4.76 27 0 27 C0.0689712 32.32069006 0.15698361 37.64060134 0.26245117 42.96069336 C0.29565114 44.76952458 0.32369841 46.57845818 0.34643555 48.38745117 C0.38007258 50.99181633 0.43239195 53.5952476 0.48828125 56.19921875 C0.49467117 57.00461594 0.5010611 57.81001312 0.50764465 58.63981628 C0.62631193 63.19852943 1.00893488 66.31924753 4 70 C6.27331799 70.60169446 6.27331799 70.60169446 8.6875 70.3125 C10.110625 70.209375 11.53375 70.10625 13 70 C13.495 74.95 13.495 74.95 14 80 C7.9434615 82.01884617 1.24153589 82.02245497 -4.5625 79.375 C-10.22607757 73.85664236 -11.01102299 67.4369515 -11.11352539 59.80883789 C-11.1133694 58.28010153 -11.10786067 56.75135856 -11.09765625 55.22265625 C-11.0962413 54.41130722 -11.09482635 53.59995819 -11.09336853 52.76402283 C-11.08781357 50.19680953 -11.07526967 47.62968652 -11.0625 45.0625 C-11.05747917 43.31185023 -11.05291729 41.56119907 -11.04882812 39.81054688 C-11.03785893 35.5403303 -11.02062582 31.27018041 -11 27 C-13.64 27 -16.28 27 -19 27 C-19 24.03 -19 21.06 -19 18 C-16.36 18 -13.72 18 -11 18 C-11 13.05 -11 8.1 -11 3 C-2.25 0 -2.25 0 0 0 Z " fill="#FFFFFF" transform="translate(1754,1195)"/>
<path d="M0 0 C7.26 0 14.52 0 22 0 C22 33.66 22 67.32 22 102 C14.74 102 7.48 102 0 102 C0 99.36 0 96.72 0 94 C4.29 94 8.58 94 13 94 C13 65.62 13 37.24 13 8 C8.71 8 4.42 8 0 8 C0 5.36 0 2.72 0 0 Z " fill="#FFFFFF" transform="translate(1880,1187)"/>
<path d="M0 0 C7.26 0 14.52 0 22 0 C22 2.64 22 5.28 22 8 C17.71 8 13.42 8 9 8 C9 36.38 9 64.76 9 94 C13.29 94 17.58 94 22 94 C22 96.64 22 99.28 22 102 C14.74 102 7.48 102 0 102 C0 68.34 0 34.68 0 0 Z " fill="#FFFFFF" transform="translate(240,1185)"/>
<path d="M0 0 C0 5.94 0 11.88 0 18 C4.62 18 9.24 18 14 18 C14 20.97 14 23.94 14 27 C9.38 27 4.76 27 0 27 C0.06917407 31.99925937 0.15728253 36.99770593 0.26245117 41.99633789 C0.29557083 43.69448786 0.32364261 45.39274448 0.34643555 47.09106445 C0.38022169 49.54163787 0.43254639 51.99124531 0.48828125 54.44140625 C0.49467117 55.19273331 0.5010611 55.94406036 0.50764465 56.71815491 C0.64776433 61.81646522 1.73437487 65.42391199 4 70 C6.97 70 9.94 70 13 70 C14.1577506 73.47325181 14.06866652 76.36067448 14 80 C9.57812564 82.21093718 3.81325848 81.40988819 -1 81 C-5.70302111 78.97283573 -7.48181498 76.80073396 -9.3956604 72.09664917 C-10.55122536 68.08762128 -10.3638539 64.05070215 -10.29296875 59.91015625 C-10.28872391 58.96563095 -10.28447906 58.02110565 -10.28010559 57.04795837 C-10.26340933 54.05250676 -10.22577406 51.0577458 -10.1875 48.0625 C-10.17244146 46.02279622 -10.1587551 43.98308183 -10.14648438 41.94335938 C-10.11353547 36.96197639 -10.06181604 31.98110501 -10 27 C-12.97 27 -15.94 27 -19 27 C-19 24.03 -19 21.06 -19 18 C-16.03 18 -13.06 18 -10 18 C-10 13.05 -10 8.1 -10 3 C-2.25 0 -2.25 0 0 0 Z " fill="#FFFFFF" transform="translate(550,1195)"/>
<path d="M0 0 C0 5.94 0 11.88 0 18 C4.62 18 9.24 18 14 18 C14 20.97 14 23.94 14 27 C9.38 27 4.76 27 0 27 C0.06917407 31.99925937 0.15728253 36.99770593 0.26245117 41.99633789 C0.29557083 43.69448786 0.32364261 45.39274448 0.34643555 47.09106445 C0.38022169 49.54163787 0.43254639 51.99124531 0.48828125 54.44140625 C0.49467117 55.19273331 0.5010611 55.94406036 0.50764465 56.71815491 C0.64776433 61.81646522 1.73437487 65.42391199 4 70 C6.97 70 9.94 70 13 70 C13.495 74.95 13.495 74.95 14 80 C9.57812564 82.21093718 3.81325848 81.40988819 -1 81 C-5.70302111 78.97283573 -7.48181498 76.80073396 -9.3956604 72.09664917 C-10.55122536 68.08762128 -10.3638539 64.05070215 -10.29296875 59.91015625 C-10.28872391 58.96563095 -10.28447906 58.02110565 -10.28010559 57.04795837 C-10.26340933 54.05250676 -10.22577406 51.0577458 -10.1875 48.0625 C-10.17244146 46.02279622 -10.1587551 43.98308183 -10.14648438 41.94335938 C-10.11353547 36.96197639 -10.06181604 31.98110501 -10 27 C-12.97 27 -15.94 27 -19 27 C-19 24.03 -19 21.06 -19 18 C-16.03 18 -13.06 18 -10 18 C-10 13.05 -10 8.1 -10 3 C-2.25 0 -2.25 0 0 0 Z " fill="#FFFFFF" transform="translate(1618,1195)"/>
<path d="M0 0 C3.63 0 7.26 0 11 0 C11.06980048 8.69335107 11.12296273 17.38660427 11.15543652 26.0801754 C11.17102972 30.11784201 11.19215048 34.15531556 11.22631836 38.19287109 C11.25914022 42.09621681 11.27690061 45.99937793 11.28463173 49.9028511 C11.2901346 51.38505581 11.30087933 52.8672515 11.31719017 54.34937668 C11.52062483 73.61780663 11.52062483 73.61780663 5.8125 81.375 C0.1431205 86.66642086 -5.35849412 88.45417815 -13 89 C-13.33 85.7 -13.66 82.4 -14 79 C-12.576875 78.4225 -11.15375 77.845 -9.6875 77.25 C-6.16610865 75.68002332 -3.78481648 74.56963296 -2 71 C-0.86530204 67.46540466 -0.8433191 64.09225125 -0.79467773 60.39550781 C-0.78477814 59.74143448 -0.77487854 59.08736115 -0.76467896 58.41346741 C-0.73319149 56.26005626 -0.70835728 54.10662308 -0.68359375 51.953125 C-0.66301319 50.45667968 -0.64201643 48.96024004 -0.62062073 47.46380615 C-0.56551382 43.53147991 -0.51605453 39.59910219 -0.46777344 35.66668701 C-0.41747514 31.65144284 -0.36183261 27.63627311 -0.30664062 23.62109375 C-0.19919832 15.74745884 -0.09772264 7.87376151 0 0 Z " fill="#FFFFFF" transform="translate(1253,1213)"/>
<path d="M0 0 C1 1 1 1 1.09765625 3.50390625 C1.08605469 4.51324219 1.07445312 5.52257813 1.0625 6.5625 C1.05347656 7.57441406 1.04445313 8.58632812 1.03515625 9.62890625 C1.02355469 10.41136719 1.01195312 11.19382812 1 12 C0.09507813 12.14695312 0.09507813 12.14695312 -0.828125 12.296875 C-4.40218135 12.96556941 -7.31416199 13.54879078 -10.375 15.5625 C-14.51423134 21.77134701 -15.45048756 28.66240488 -15.51171875 35.97265625 C-15.52966995 36.78117538 -15.54762115 37.58969452 -15.56611633 38.42271423 C-15.61968544 40.96925862 -15.65394079 43.51562157 -15.6875 46.0625 C-15.72072044 47.80406144 -15.75521437 49.54559908 -15.79101562 51.28710938 C-15.87537993 55.52460737 -15.94244258 59.76205658 -16 64 C-19.63 64 -23.26 64 -27 64 C-27 43.54 -27 23.08 -27 2 C-23.7 2 -20.4 2 -17 2 C-16.67 4.31 -16.34 6.62 -16 9 C-15.62488281 8.51789063 -15.24976563 8.03578125 -14.86328125 7.5390625 C-10.52960011 2.19018653 -7.21512541 -0.60126045 0 0 Z " fill="#FFFFFF" transform="translate(1182,1211)"/>
<path d="M0 0 C1 1 1 1 1.09765625 3.50390625 C1.08605469 4.51324219 1.07445312 5.52257813 1.0625 6.5625 C1.05347656 7.57441406 1.04445313 8.58632812 1.03515625 9.62890625 C1.02355469 10.41136719 1.01195312 11.19382812 1 12 C0.40832031 12.08636719 -0.18335938 12.17273437 -0.79296875 12.26171875 C-6.30902423 13.2425508 -9.50058301 14.33411068 -13 19 C-15.14913604 24.06982999 -15.33799804 28.70361298 -15.4140625 34.1171875 C-15.43342865 34.97434357 -15.4527948 35.83149963 -15.4727478 36.71463013 C-15.53221256 39.43465428 -15.57879569 42.15472152 -15.625 44.875 C-15.6632103 46.72658028 -15.70226378 48.57814337 -15.7421875 50.4296875 C-15.83788664 54.95298425 -15.92203906 59.47636416 -16 64 C-19.63 64 -23.26 64 -27 64 C-27 43.54 -27 23.08 -27 2 C-24.03 2 -21.06 2 -18 2 C-17.67 3.98 -17.34 5.96 -17 8 C-16.55269531 7.59007812 -16.10539063 7.18015625 -15.64453125 6.7578125 C-10.72671099 2.37476587 -6.8826897 -0.57355747 0 0 Z " fill="#FFFFFF" transform="translate(870,1211)"/>
<path d="M0 0 C3.63 0 7.26 0 11 0 C11 20.46 11 40.92 11 62 C7.37 62 3.74 62 0 62 C0 41.54 0 21.08 0 0 Z " fill="#FFFFFF" transform="translate(924,1213)"/>
<path d="M0 0 C3.63 0 7.26 0 11 0 C11 20.46 11 40.92 11 62 C7.37 62 3.74 62 0 62 C0 41.54 0 21.08 0 0 Z " fill="#FFFFFF" transform="translate(511,1213)"/>
<path d="M0 0 C2.24798963 1.69943713 2.92668746 2.56299975 3.3984375 5.375 C3.39070313 6.24125 3.38296875 7.1075 3.375 8 C3.38273437 8.86625 3.39046875 9.7325 3.3984375 10.625 C3 13 3 13 1.7265625 14.78515625 C-0.90279842 16.63522694 -2.99600301 16.48363957 -6.125 16.33984375 C-8 16 -8 16 -10 14.5 C-11.42294045 10.94264887 -11.58203406 7.77934115 -11 4 C-8.36088148 -0.9012201 -5.17268232 -1.5518047 0 0 Z " fill="#FFFFFF" transform="translate(1848,1260)"/>
<path d="M0 0 C2.47639914 3.71459871 2.52811201 6.69718579 2 11 C1 13.5 1 13.5 -1 15 C-3.77983616 15.55596723 -6.21958302 15.55029086 -9 15 C-11 13.5625 -11 13.5625 -12 11 C-12.38619753 7.9435224 -12.57029122 5.0359621 -12 2 C-8.40169256 -2.61888002 -5.07801512 -2.1608575 0 0 Z " fill="#FFFFFF" transform="translate(1652,1261)"/>
<path d="M0 0 C1.59492803 3.18985607 1.37616681 6.52932887 1 10 C-0.0625 12 -0.0625 12 -2 13 C-5.5 13.4375 -5.5 13.4375 -9 13 C-11.63769276 10.78774156 -11.94923246 9.40614032 -12.375 6 C-11.95989664 2.67917314 -11.34610397 1.34610397 -9 -1 C-5.20980534 -2.26339822 -3.62477616 -1.49719015 0 0 Z " fill="#FFFFFF" transform="translate(1264,1190)"/>
<path d="M0 0 C1.59492803 3.18985607 1.37616681 6.52932887 1 10 C-0.0625 12 -0.0625 12 -2 13 C-5.5 13.4375 -5.5 13.4375 -9 13 C-11.63769276 10.78774156 -11.94923246 9.40614032 -12.375 6 C-11.95989664 2.67917314 -11.34610397 1.34610397 -9 -1 C-5.20980534 -2.26339822 -3.62477616 -1.49719015 0 0 Z " fill="#FFFFFF" transform="translate(522,1190)"/>
<path d="M0 0 C3 1.25 3 1.25 5 4.25 C5.34745351 7.51606297 5.28373354 9.61577208 3.9375 12.625 C2 14.25 2 14.25 -1.5 14.6875 C-5 14.25 -5 14.25 -6.9375 13.25 C-8.64932887 10.02773389 -8.56519765 6.81223254 -8 3.25 C-5.69836508 0.00678716 -3.9127427 -0.97818568 0 0 Z " fill="#FFFFFF" transform="translate(931,1188.75)"/>
</svg>
