<?xml version="1.0" encoding="UTF-8"?>
<svg version="1.1" xmlns="http://www.w3.org/2000/svg" width="601" height="594">
<path d="M0 0 C12.26205988 11.44574167 24.70611461 23.06889718 34.8125 36.5 C35.74801245 37.7075626 36.68426685 38.91455061 37.62109375 40.12109375 C47.08981534 52.42159679 56.47848457 65.25721393 62.8125 79.5 C62.1525 79.5 61.4925 79.5 60.8125 79.5 C59.45762931 77.84134664 58.18060434 76.11898887 56.9375 74.375 C43.32429944 55.79168132 27.15113472 38.34472512 8.50732422 24.74609375 C6.74529423 23.45058798 5.01469615 22.11975936 3.28515625 20.78125 C-11.05086857 9.80797263 -26.88919643 1.19030783 -43.1875 -6.5 C-43.80061035 -6.79326172 -44.4137207 -7.08652344 -45.04541016 -7.38867188 C-72.39396597 -20.3588346 -102.15936677 -27.51443397 -132.1875 -30.5 C-132.89406738 -30.57057617 -133.60063477 -30.64115234 -134.32861328 -30.71386719 C-199.02002036 -36.8165255 -266.37073249 -17.57127377 -318.1875 21.5 C-318.75533203 21.92361816 -319.32316406 22.34723633 -319.90820312 22.78369141 C-329.61147303 30.05567412 -338.45928793 38.09425882 -347.1875 46.5 C-347.9815625 47.2528125 -348.775625 48.005625 -349.59375 48.78125 C-354.42941707 53.46340383 -358.70185464 58.53890909 -362.86572266 63.82324219 C-363.79875755 65.00685571 -364.73637767 66.18686167 -365.67724609 67.36425781 C-374.08813646 77.91351013 -381.51366474 88.77393902 -388.1875 100.5 C-388.61659668 101.24975098 -389.04569336 101.99950195 -389.48779297 102.77197266 C-404.44757697 129.20791054 -413.86477016 158.4775986 -418.1875 188.5 C-418.36321533 189.71985596 -418.36321533 189.71985596 -418.54248047 190.96435547 C-427.16245773 254.09640293 -408.96576495 318.94251413 -371.1875 369.8125 C-357.81679218 387.37802439 -342.80687659 404.1034492 -325.1875 417.5 C-324.01251566 418.42644299 -322.83807379 419.35357424 -321.6640625 420.28125 C-311.38402144 428.30255939 -300.52414977 435.07781444 -289.1875 441.5 C-288.40503906 441.94617676 -287.62257813 442.39235352 -286.81640625 442.85205078 C-237.41820424 470.74787355 -177.24008281 481.29461127 -121.1875 473.5 C-120.29611328 473.37641113 -119.40472656 473.25282227 -118.48632812 473.12548828 C-66.16275302 465.55233925 -14.27082666 443.00477879 24.09765625 406.09765625 C26.32097996 403.97030335 28.57761884 401.97052451 30.9375 400 C39.54626968 392.53543388 46.87144537 383.48956073 53.8125 374.5 C54.4725 374.83 55.1325 375.16 55.8125 375.5 C38.03149078 403.07461249 16.8742667 429.32074636 -9.1875 449.5 C-10.28936349 450.41055836 -11.38812498 451.32487863 -12.484375 452.2421875 C-64.13926244 495.15374015 -132.25145753 517.94944193 -199.01660156 517.81567383 C-202.28745232 517.81252412 -205.55738575 517.83603637 -208.828125 517.86132812 C-228.34442883 517.92079385 -247.47078553 515.8823454 -266.5625 511.8125 C-267.76817627 511.55686279 -268.97385254 511.30122559 -270.21606445 511.0378418 C-315.48533927 501.10530521 -358.9565912 480.55080758 -394.62060547 450.80664062 C-396.2272154 449.46688114 -397.84963646 448.1479328 -399.47265625 446.828125 C-413.62376953 435.15851562 -427.03951267 422.08266652 -438.1875 407.5 C-439.25815115 406.16614711 -440.33129197 404.83429065 -441.40625 403.50390625 C-475.85132866 360.56988047 -496.78519159 308.04884238 -503.1875 253.5 C-503.2817627 252.74726807 -503.37602539 251.99453613 -503.47314453 251.21899414 C-504.53628785 241.4957022 -504.43130907 231.70667686 -504.4375 221.9375 C-504.43817474 220.98080414 -504.43884949 220.02410828 -504.43954468 219.03842163 C-504.42235858 203.66746656 -503.81617731 188.67964977 -501.1875 173.5 C-500.93009033 172.00944092 -500.93009033 172.00944092 -500.66748047 170.48876953 C-491.73524503 120.67100244 -470.88202387 74.8868968 -439.1875 35.5 C-438.36765625 34.47390625 -437.5478125 33.4478125 -436.703125 32.390625 C-430.14290115 24.38161421 -422.91884302 17.02165669 -415.625 9.6875 C-414.90082382 8.95542328 -414.90082382 8.95542328 -414.16201782 8.20855713 C-407.52060532 1.51119469 -400.60868963 -4.67282622 -393.1875 -10.5 C-392.50872803 -11.03810303 -391.82995605 -11.57620605 -391.13061523 -12.13061523 C-307.94477886 -77.41639705 -194.68810922 -93.83222395 0 0 Z " fill="#DB9727" transform="translate(504.1875,76.5)"/>
<path d="M0 0 C0.80405273 0.24024902 1.60810547 0.48049805 2.43652344 0.72802734 C29.83964714 9.07326728 56.58342244 23.23156573 79 41 C79.8353125 41.64324219 80.670625 42.28648438 81.53125 42.94921875 C88.35234432 48.27010403 94.74112399 54.03604485 101 60 C101.60038086 60.57169922 102.20076172 61.14339844 102.81933594 61.73242188 C111.1666914 69.73933279 118.81056705 77.96175052 125.69824219 87.25830078 C126.99532734 88.99374817 128.32532522 90.69889576 129.6640625 92.40234375 C167.65124197 141.46168088 182.04381979 206.65166019 174.48095703 267.61376953 C170.90306103 293.07020309 163.2185727 317.8924637 152 341 C151.65743164 341.70576172 151.31486328 342.41152344 150.96191406 343.13867188 C141.04194058 363.27446147 128.02076903 381.79825385 112.6640625 398.1484375 C110.16102656 400.82764019 107.73319394 403.55906463 105.3125 406.3125 C101.46685787 410.5854357 97.40390635 414.31742314 93 418 C92.06671875 418.82113281 91.1334375 419.64226562 90.171875 420.48828125 C77.53445749 431.55248547 63.5983142 440.73246091 49 449 C48.29568848 449.4007373 47.59137695 449.80147461 46.86572266 450.21435547 C8.68911094 471.70705773 -35.24389701 482.21714489 -78.9375 482.1875 C-80.19006592 482.18669434 -81.44263184 482.18588867 -82.7331543 482.18505859 C-90.62589184 482.1338364 -98.45122471 481.83521291 -106.3125 481.125 C-107.18189209 481.04660889 -108.05128418 480.96821777 -108.94702148 480.88745117 C-114.12284052 480.3557483 -118.98153821 479.37444638 -124 478 C-121.02080984 476.36682169 -118.26490431 475.48921032 -114.94921875 474.7734375 C-113.95269287 474.55083252 -112.95616699 474.32822754 -111.92944336 474.09887695 C-110.3246814 473.74055786 -110.3246814 473.74055786 -108.6875 473.375 C-53.723754 460.54310528 -0.04174764 428.64406822 33.72607422 382.71826172 C35.02250666 380.96964318 36.35288718 379.25171197 37.69140625 377.53515625 C45.55497002 367.3203701 51.93068746 356.3563867 58 345 C58.40992188 344.23768066 58.81984375 343.47536133 59.2421875 342.68994141 C76.56042824 309.93492987 84.45749119 272.52565042 84.375 235.6875 C84.37445618 234.76891205 84.37391235 233.8503241 84.37335205 232.90390015 C84.21539661 174.6177123 62.38481252 119.65500564 24 76 C23.21496094 75.1028125 22.42992187 74.205625 21.62109375 73.28125 C13.37557302 63.98890664 4.73235732 55.72227568 -5 48 C-6.04919712 47.13795875 -7.09734435 46.27463836 -8.14453125 45.41015625 C-39.37886428 19.88547409 -79.52523747 1.01070032 -119.4375 -5.4296875 C-122 -6 -122 -6 -124 -8 C-116.50523195 -9.70835854 -109.0985491 -10.57487147 -101.4375 -11.125 C-100.28636719 -11.2084668 -99.13523437 -11.29193359 -97.94921875 -11.37792969 C-64.65046855 -13.66441898 -31.90360369 -9.7168033 0 0 Z " fill="#2E3C8F" transform="translate(425,63)"/>
<path d="M0 0 C18.81 0 37.62 0 57 0 C57.01458252 6.68838135 57.02916504 13.3767627 57.04418945 20.26782227 C57.09446742 42.33623908 57.16089942 64.40458524 57.23571491 86.47293186 C57.24466654 89.13665823 57.25359392 91.80038465 57.26245117 94.46411133 C57.26465486 95.12619163 57.26685854 95.78827194 57.269129 96.47041529 C57.30229319 106.52136309 57.3267266 116.57230852 57.34643555 126.62329102 C57.36940097 138.28759929 57.40278282 149.95182315 57.44870156 161.61606449 C57.47265327 167.79285401 57.49136934 173.96955982 57.49761391 180.14639473 C57.50365585 185.96006959 57.52362385 191.77353019 57.55427551 197.58712578 C57.56306995 199.7208088 57.56677542 201.8545198 57.56500816 203.98822021 C57.56335651 206.90247466 57.58004593 209.81607513 57.60127258 212.73023987 C57.59642501 213.5736405 57.59157743 214.41704113 57.58658296 215.28599936 C57.66664011 221.95070727 58.96270408 226.64927393 63.4375 231.8125 C66.96037906 234.81983579 69.5499128 236.24269164 74.20147705 236.2784729 C75.03156281 236.28963638 75.86164856 236.30079987 76.71688843 236.31230164 C77.6188797 236.31446182 78.52087097 236.31662201 79.45019531 236.31884766 C80.40662933 236.32889328 81.36306335 236.3389389 82.34848022 236.34928894 C85.50835573 236.38016818 88.66814632 236.39716939 91.828125 236.4140625 C94.01959974 236.43277032 96.21106725 236.45234344 98.40252686 236.4727478 C104.16955302 236.52411572 109.93660255 236.5637166 115.70373535 236.60089111 C121.58900759 236.64090148 127.47418224 236.69200737 133.359375 236.7421875 C144.90618149 236.83900201 156.45304303 236.92338919 168 237 C168.48914591 238.5171814 168.97829183 240.03436279 169.46743774 241.55154419 C169.7791007 242.51818937 170.09076366 243.48483456 170.41187096 244.48077202 C171.09239246 246.59161968 171.77282305 248.70249665 172.45316505 250.81340218 C174.55637208 257.33938039 174.55637208 257.33938039 176.66619873 263.86322021 C177.62378097 266.82124474 178.57460119 269.78134835 179.5234375 272.7421875 C179.83708252 273.70584229 180.15072754 274.66949707 180.47387695 275.66235352 C180.77817627 276.61537354 181.08247559 277.56839355 181.39599609 278.55029297 C181.65802826 279.3630368 181.92006042 280.17578064 182.19003296 281.01315308 C183.35183384 285.29742786 184.1677406 289.6413709 185 294 C170.1518802 294.09389307 155.3037836 294.16419764 140.45542908 294.20724869 C133.55937714 294.22777905 126.66351082 294.25571448 119.76757812 294.30175781 C113.10207598 294.34624096 106.43680563 294.36919453 99.77114868 294.37950897 C97.23887107 294.38685155 94.70660296 294.40118868 92.17440796 294.42292023 C75.50761227 294.56015771 59.72703215 294.38925994 44.6875 286.25 C43.70342163 285.73675171 43.70342163 285.73675171 42.69946289 285.21313477 C36.72684913 282.01610279 31.22960074 278.31243636 26 274 C25.05447266 273.22462891 25.05447266 273.22462891 24.08984375 272.43359375 C10.48348039 260.06699015 2.4187494 239.7979377 0 222 C-0.13744922 218.9495715 -0.13076267 215.90359214 -0.12025452 212.85049438 C-0.12110894 211.93881921 -0.12196337 211.02714404 -0.12284368 210.08784235 C-0.12448842 207.03852193 -0.11899357 203.98925674 -0.11352539 200.93994141 C-0.11324328 198.7518921 -0.11340173 196.56384271 -0.1139679 194.37579346 C-0.11425492 188.4383133 -0.10837344 182.50085332 -0.10139394 176.56337786 C-0.09514469 170.35738763 -0.09455535 164.15139694 -0.09336853 157.94540405 C-0.09043659 146.86264671 -0.08321422 135.77989772 -0.07372581 124.6971442 C-0.06515926 114.63777758 -0.0589155 104.57841245 -0.05493164 94.51904297 C-0.05466892 93.85750629 -0.05440619 93.19596961 -0.05413551 92.51438637 C-0.05283044 89.19554637 -0.051569 85.87670636 -0.05032361 82.55786633 C-0.03986972 55.03857121 -0.02152998 27.51928884 0 0 Z " fill="#DB9727" transform="translate(209,149)"/>
</svg>
